M48
; DRILL file {KiCad 8.0.4} date 2024-08-24T16:54:39+0200
; FORMAT={-:-/ absolute / metric / decimal}
; #@! TF.CreationDate,2024-08-24T16:54:39+02:00
; #@! TF.GenerationSoftware,Kicad,Pcbnew,8.0.4
; #@! TF.FileFunction,Plated,1,4,PTH
FMAT,2
METRIC
; #@! TA.AperFunction,Plated,PTH,ComponentDrill
T1C0.500
; #@! TA.AperFunction,Plated,PTH,ComponentDrill
T2C0.750
; #@! TA.AperFunction,Plated,PTH,ViaDrill
T3C0.800
; #@! TA.AperFunction,Plated,PTH,ComponentDrill
T4C0.800
; #@! TA.AperFunction,Plated,PTH,ComponentDrill
T5C0.900
; #@! TA.AperFunction,Plated,PTH,ViaDrill
T6C1.000
; #@! TA.AperFunction,Plated,PTH,ComponentDrill
T7C1.000
; #@! TA.AperFunction,Plated,PTH,ComponentDrill
T8C1.100
; #@! TA.AperFunction,Plated,PTH,ComponentDrill
T9C1.200
; #@! TA.AperFunction,Plated,PTH,ComponentDrill
T10C1.300
; #@! TA.AperFunction,Plated,PTH,ComponentDrill
T11C1.500
; #@! TA.AperFunction,Plated,PTH,ComponentDrill
T12C1.520
%
G90
G05
T1
X11.938Y-58.166
X13.259Y-13.208
X13.564Y-33.122
X21.844Y-45.466
X24.511Y-27.051
X65.684Y-42.926
X69.494Y-26.264
X80.518Y-22.86
X84.201Y-96.901
X88.0Y-75.0
X90.043Y-96.901
X91.44Y-13.716
X97.536Y-13.716
X114.808Y-57.912
X122.682Y-57.912
X128.524Y-11.43
X138.684Y-56.388
X147.168Y-43.028
T2
X40.132Y-13.208
X41.412Y-11.938
X42.672Y-13.208
T3
X26.162Y-36.17
X31.852Y-36.17
X34.798Y-54.458
X36.678Y-88.646
X45.568Y-27.483
X45.72Y-13.208
X46.228Y-72.238
X52.324Y-70.485
X57.81Y-20.676
X63.373Y-50.038
X76.302Y-14.173
X77.978Y-36.83
X80.645Y-44.196
X86.106Y-44.069
X99.06Y-58.928
X101.6Y-32.004
X112.649Y-60.579
X112.649Y-67.818
X113.0Y-48.0
X126.238Y-55.626
T4
X4.017Y-33.147
X5.207Y-68.326
X5.207Y-78.486
X6.096Y-42.672
X6.096Y-52.832
X6.579Y-27.686
X8.382Y-68.326
X8.382Y-78.486
X9.017Y-33.147
X9.079Y-27.686
X9.271Y-13.208
X9.271Y-23.368
X10.16Y-42.672
X10.16Y-52.832
X15.367Y-71.287
X15.367Y-76.287
X17.018Y-16.169
X17.018Y-21.169
X18.796Y-45.379
X18.796Y-50.379
X24.257Y-50.165
X24.257Y-60.325
X24.257Y-62.992
X24.257Y-73.152
X24.638Y-12.954
X24.638Y-23.114
X27.559Y-47.752
X27.559Y-57.912
X29.591Y-65.532
X29.591Y-75.692
X30.861Y-45.212
X30.861Y-55.372
X32.512Y-23.673
X32.512Y-33.833
X34.417Y-68.072
X34.417Y-78.232
X34.798Y-47.792
X34.798Y-52.792
X36.576Y-5.588
X36.576Y-15.748
X38.608Y-35.052
X38.608Y-37.592
X38.608Y-40.132
X38.608Y-42.672
X38.608Y-45.212
X38.608Y-47.752
X38.608Y-50.292
X38.608Y-52.832
X38.608Y-55.372
X38.608Y-57.912
X38.608Y-60.452
X38.608Y-62.992
X38.608Y-65.532
X38.608Y-68.072
X46.228Y-35.052
X46.228Y-37.592
X46.228Y-40.132
X46.228Y-42.672
X46.228Y-45.212
X46.228Y-47.752
X46.228Y-50.292
X46.228Y-52.832
X46.228Y-55.372
X46.228Y-57.912
X46.228Y-60.452
X46.228Y-62.992
X46.228Y-65.532
X46.228Y-68.072
X46.228Y-75.438
X49.468Y-47.516
X49.468Y-52.516
X49.53Y-35.052
X49.53Y-45.212
X56.388Y-75.438
X59.501Y-50.078
X59.501Y-52.578
X63.373Y-55.118
X63.373Y-61.214
X63.5Y-71.476
X63.5Y-75.438
X65.659Y-46.99
X70.612Y-10.262
X70.612Y-20.422
X72.183Y-94.124
X72.295Y-82.704
X72.295Y-85.244
X72.295Y-87.784
X72.295Y-90.324
X73.533Y-55.118
X73.533Y-61.214
X73.66Y-71.476
X73.66Y-75.438
X73.725Y-20.447
X75.819Y-46.99
X76.225Y-20.447
X78.735Y-68.331
X78.735Y-70.871
X78.745Y-46.985
X78.745Y-49.525
X78.745Y-54.097
X78.745Y-56.637
X78.745Y-61.209
X78.745Y-63.749
X79.915Y-82.704
X79.915Y-85.244
X79.915Y-87.784
X79.915Y-90.324
X82.343Y-94.124
X83.185Y-75.057
X83.185Y-85.217
X86.233Y-83.947
X86.233Y-94.107
X88.895Y-68.331
X88.895Y-70.871
X88.905Y-46.985
X88.905Y-49.525
X88.905Y-54.097
X88.905Y-56.637
X88.905Y-61.209
X88.905Y-63.749
X90.743Y-38.862
X93.243Y-38.862
X103.672Y-51.308
X105.41Y-26.964
X105.41Y-31.964
X108.672Y-51.308
X112.268Y-43.18
X112.268Y-53.34
X115.824Y-43.18
X115.824Y-53.34
X118.872Y-45.76
X118.872Y-50.76
X122.184Y-44.46
X122.184Y-47.0
X122.184Y-49.54
X122.184Y-52.08
X125.705Y-39.624
X128.205Y-39.624
X129.804Y-44.46
X129.804Y-47.0
X129.804Y-49.54
X129.804Y-52.08
X133.198Y-45.749
X133.198Y-50.749
X138.176Y-62.484
X138.176Y-72.644
X139.192Y-45.857
X139.192Y-50.857
X143.256Y-62.484
X143.256Y-72.644
X145.542Y-48.26
X145.542Y-58.42
X148.844Y-48.26
X148.844Y-58.42
T5
X5.08Y-13.208
X5.08Y-23.368
X11.811Y-68.199
X11.811Y-78.359
X14.224Y-42.672
X14.224Y-52.832
X20.828Y-12.954
X20.828Y-23.114
X29.561Y-88.646
X32.101Y-88.646
T6
X143.256Y-10.16
T7
X40.488Y-20.676
X40.488Y-23.216
X43.028Y-20.676
X43.028Y-23.216
X45.568Y-20.676
X45.568Y-23.216
X46.533Y-83.82
X46.533Y-88.82
X48.108Y-20.676
X48.108Y-23.216
X50.648Y-20.676
X50.648Y-23.216
X52.324Y-62.992
X52.324Y-65.532
X52.324Y-68.072
X53.786Y-47.516
X53.786Y-52.516
X75.448Y-32.134
X77.988Y-32.134
X80.528Y-32.134
X83.068Y-32.134
X88.148Y-32.134
X90.688Y-32.134
X93.228Y-32.134
X101.64Y-41.148
X103.54Y-58.928
X106.64Y-41.148
X108.54Y-58.928
X116.459Y-68.326
X116.886Y-73.46
X128.886Y-73.46
X129.159Y-68.326
X148.336Y-24.13
X148.336Y-36.83
X148.336Y-66.294
X148.336Y-78.994
T8
X102.616Y-47.681
X105.156Y-47.681
X107.696Y-47.681
X138.176Y-77.653
X140.716Y-77.653
X143.256Y-77.653
T9
X101.6Y-15.748
X117.602Y-26.494
X117.602Y-33.994
X127.0Y-15.748
X130.048Y-15.748
X136.652Y-26.494
X136.652Y-33.994
X155.448Y-15.748
T10
X89.488Y-88.75
X99.488Y-86.25
X99.488Y-91.25
X116.886Y-85.66
X122.936Y-71.51
X128.936Y-85.71
X153.924Y-23.368
X153.924Y-38.608
T11
X101.984Y-5.588
X108.966Y-71.758
X108.966Y-94.358
X124.584Y-5.588
X133.175Y-85.7
X155.775Y-85.7
T12
X4.064Y-5.08
X5.588Y-58.42
X5.588Y-63.5
X9.144Y-5.08
X14.224Y-5.08
X20.828Y-5.08
X25.908Y-5.08
X30.988Y-5.08
X42.164Y-5.207
X47.244Y-5.207
X59.436Y-5.08
X64.516Y-5.08
X70.612Y-5.08
X75.692Y-5.08
X86.36Y-5.08
X91.44Y-5.08
X118.364Y-94.488
X123.444Y-94.488
X128.524Y-94.488
X129.286Y-4.826
X134.366Y-4.826
X140.716Y-4.826
X145.796Y-4.826
X154.432Y-53.34
X154.432Y-58.42
X154.432Y-67.564
X154.432Y-72.644
X154.432Y-77.724
M30
