<?xml version="1.0" standalone="no"?>
<!DOCTYPE svg PUBLIC "-//W3C//DTD SVG 1.1//EN"
"http://www.w3.org/Graphics/SVG/1.1/DTD/svg11.dtd">
<svg width="604.913" height="378.142" viewBox="0 0 12602.4 7877.95" version="1.1"
xmlns="http://www.w3.org/2000/svg"
xmlns:xlink="http://www.w3.org/1999/xlink">
<circle cx="411.969" cy="6181.97" r="31.4961" style=""/>
<circle cx="661.969" cy="6181.97" r="31.4961" style=""/>
<circle cx="1211.97" cy="6008.82" r="31.4961" style=""/>
<circle cx="1211.97" cy="5615.12" r="31.4961" style=""/>
<circle cx="661.969" cy="5381.97" r="31.4961" style=""/>
<circle cx="411.969" cy="5381.97" r="31.4961" style=""/>
<circle cx="941.969" cy="4581.97" r="31.4961" style=""/>
<circle cx="801.969" cy="4161.97" r="31.4961" style=""/>
<circle cx="481.969" cy="4161.97" r="31.4961" style=""/>
<circle cx="801.969" cy="3361.97" r="31.4961" style=""/>
<circle cx="481.969" cy="3361.97" r="31.4961" style=""/>
<circle cx="318.268" cy="2611.97" r="31.4961" style=""/>
<circle cx="711.969" cy="2611.97" r="31.4961" style=""/>
<circle cx="1070" cy="2610" r="31.4961" style=""/>
<circle cx="716.85" cy="2181.97" r="31.4961" style=""/>
<circle cx="520" cy="2181.97" r="31.4961" style=""/>
<circle cx="731.969" cy="1841.97" r="31.4961" style=""/>
<circle cx="1341.97" cy="1668.82" r="31.4961" style=""/>
<circle cx="731.969" cy="1041.97" r="31.4961" style=""/>
<circle cx="1045.98" cy="1041.97" r="31.4961" style=""/>
<circle cx="1341.97" cy="1275.12" r="31.4961" style=""/>
<circle cx="1941.97" cy="1021.97" r="31.4961" style=""/>
<circle cx="2881.97" cy="441.969" r="31.4961" style=""/>
<circle cx="3601.97" cy="1041.97" r="31.4961" style=""/>
<circle cx="3361.97" cy="1041.97" r="31.4961" style=""/>
<circle cx="3262.76" cy="941.969" r="31.4961" style=""/>
<circle cx="3161.97" cy="1041.97" r="31.4961" style=""/>
<circle cx="2881.97" cy="1241.97" r="31.4961" style=""/>
<circle cx="2561.97" cy="1865.98" r="31.4961" style=""/>
<circle cx="1941.97" cy="1821.97" r="31.4961" style=""/>
<circle cx="1931.97" cy="2131.97" r="31.4961" style=""/>
<circle cx="2061.97" cy="2850" r="31.4961" style=""/>
<circle cx="2510" cy="2850" r="31.4961" style=""/>
<circle cx="2561.97" cy="2665.98" r="31.4961" style=""/>
<circle cx="3041.97" cy="2761.97" r="31.4961" style=""/>
<circle cx="3590" cy="2165.98" r="31.4961" style=""/>
<circle cx="3901.97" cy="2761.97" r="31.4961" style=""/>
<circle cx="3641.97" cy="2761.97" r="31.4961" style=""/>
<circle cx="3641.97" cy="2961.97" r="31.4961" style=""/>
<circle cx="3041.97" cy="2961.97" r="31.4961" style=""/>
<circle cx="3041.97" cy="3161.97" r="31.4961" style=""/>
<circle cx="3041.97" cy="3361.97" r="31.4961" style=""/>
<circle cx="3041.97" cy="3561.97" r="31.4961" style=""/>
<circle cx="3041.97" cy="3761.97" r="31.4961" style=""/>
<circle cx="3041.97" cy="3961.97" r="31.4961" style=""/>
<circle cx="3041.97" cy="4161.97" r="31.4961" style=""/>
<circle cx="3041.97" cy="4361.97" r="31.4961" style=""/>
<circle cx="3041.97" cy="4561.97" r="31.4961" style=""/>
<circle cx="3041.97" cy="4761.97" r="31.4961" style=""/>
<circle cx="3041.97" cy="4961.97" r="31.4961" style=""/>
<circle cx="3041.97" cy="5161.97" r="31.4961" style=""/>
<circle cx="3041.97" cy="5361.97" r="31.4961" style=""/>
<circle cx="2711.97" cy="5361.97" r="31.4961" style=""/>
<circle cx="2171.97" cy="4561.97" r="31.4961" style=""/>
<circle cx="2431.97" cy="4361.97" r="31.4961" style=""/>
<circle cx="2741.97" cy="4290" r="31.4961" style=""/>
<circle cx="2741.97" cy="4158.82" r="31.4961" style=""/>
<circle cx="2741.97" cy="3765.12" r="31.4961" style=""/>
<circle cx="2431.97" cy="3561.97" r="31.4961" style=""/>
<circle cx="2171.97" cy="3761.97" r="31.4961" style=""/>
<circle cx="1911.97" cy="3951.97" r="31.4961" style=""/>
<circle cx="1721.97" cy="3581.97" r="31.4961" style=""/>
<circle cx="1481.97" cy="3575.12" r="31.4961" style=""/>
<circle cx="1481.97" cy="3968.82" r="31.4961" style=""/>
<circle cx="1911.97" cy="4751.97" r="31.4961" style=""/>
<circle cx="1911.97" cy="4961.97" r="31.4961" style=""/>
<circle cx="2331.97" cy="5161.97" r="31.4961" style=""/>
<circle cx="1911.97" cy="5761.97" r="31.4961" style=""/>
<circle cx="2331.97" cy="5961.97" r="31.4961" style=""/>
<circle cx="2711.97" cy="6161.97" r="31.4961" style=""/>
<circle cx="2890" cy="6981.97" r="31.4961" style=""/>
<circle cx="3641.97" cy="5941.97" r="31.4961" style=""/>
<circle cx="3641.97" cy="5690" r="31.4961" style=""/>
<circle cx="3641.97" cy="5361.97" r="31.4961" style=""/>
<circle cx="3641.97" cy="5161.97" r="31.4961" style=""/>
<circle cx="3641.97" cy="4961.97" r="31.4961" style=""/>
<circle cx="3641.97" cy="4761.97" r="31.4961" style=""/>
<circle cx="3641.97" cy="4561.97" r="31.4961" style=""/>
<circle cx="3641.97" cy="4361.97" r="31.4961" style=""/>
<circle cx="3641.97" cy="4161.97" r="31.4961" style=""/>
<circle cx="3641.97" cy="3961.97" r="31.4961" style=""/>
<circle cx="3641.97" cy="3761.97" r="31.4961" style=""/>
<circle cx="3641.97" cy="3561.97" r="31.4961" style=""/>
<circle cx="3641.97" cy="3361.97" r="31.4961" style=""/>
<circle cx="3641.97" cy="3161.97" r="31.4961" style=""/>
<circle cx="3901.97" cy="3561.97" r="31.4961" style=""/>
<circle cx="3897.09" cy="3743.39" r="31.4961" style=""/>
<circle cx="3897.09" cy="4137.09" r="31.4961" style=""/>
<circle cx="4687.09" cy="3945.12" r="31.4961" style=""/>
<circle cx="4687.09" cy="4141.97" r="31.4961" style=""/>
<circle cx="4991.97" cy="3941.97" r="31.4961" style=""/>
<circle cx="5171.97" cy="3701.97" r="31.4961" style=""/>
<circle cx="5173.94" cy="3381.97" r="31.4961" style=""/>
<circle cx="6141.97" cy="2901.97" r="31.4961" style=""/>
<circle cx="4553.94" cy="1630" r="31.4961" style=""/>
<circle cx="5561.97" cy="810" r="31.4961" style=""/>
<circle cx="6010" cy="1117.95" r="31.4961" style=""/>
<circle cx="5561.97" cy="1610" r="31.4961" style=""/>
<circle cx="5473.94" cy="2070" r="31.4961" style=""/>
<circle cx="5807.09" cy="1611.97" r="31.4961" style=""/>
<circle cx="6003.94" cy="1611.97" r="31.4961" style=""/>
<circle cx="6341.97" cy="1801.97" r="31.4961" style=""/>
<circle cx="7201.97" cy="1081.97" r="31.4961" style=""/>
<circle cx="7681.97" cy="1081.97" r="31.4961" style=""/>
<circle cx="8301.97" cy="2125.12" r="31.4961" style=""/>
<circle cx="8301.97" cy="2518.82" r="31.4961" style=""/>
<circle cx="8001.97" cy="2521.97" r="31.4961" style=""/>
<circle cx="7343.94" cy="3061.97" r="31.4961" style=""/>
<circle cx="7147.09" cy="3061.97" r="31.4961" style=""/>
<circle cx="6781.97" cy="3471.97" r="31.4961" style=""/>
<circle cx="7002.36" cy="3701.57" r="31.4961" style=""/>
<circle cx="7002.36" cy="3901.57" r="31.4961" style=""/>
<circle cx="7002.36" cy="4261.57" r="31.4961" style=""/>
<circle cx="7002.36" cy="4461.57" r="31.4961" style=""/>
<circle cx="6201.57" cy="5382.36" r="31.4961" style=""/>
<circle cx="6201.57" cy="5582.36" r="31.4961" style=""/>
<circle cx="5801.97" cy="5941.97" r="31.4961" style=""/>
<circle cx="5801.97" cy="5630" r="31.4961" style=""/>
<circle cx="6202.36" cy="5021.57" r="31.4961" style=""/>
<circle cx="6202.36" cy="4821.57" r="31.4961" style=""/>
<circle cx="6202.36" cy="4461.57" r="31.4961" style=""/>
<circle cx="6202.36" cy="4261.57" r="31.4961" style=""/>
<circle cx="6202.36" cy="3901.57" r="31.4961" style=""/>
<circle cx="6202.36" cy="3701.57" r="31.4961" style=""/>
<circle cx="6351.97" cy="3481.97" r="31.4961" style=""/>
<circle cx="5971.97" cy="3701.97" r="31.4961" style=""/>
<circle cx="5791.97" cy="4341.97" r="31.4961" style=""/>
<circle cx="5791.97" cy="4821.97" r="31.4961" style=""/>
<circle cx="4991.97" cy="4341.97" r="31.4961" style=""/>
<circle cx="4991.97" cy="4821.97" r="31.4961" style=""/>
<circle cx="4121.97" cy="5551.97" r="31.4961" style=""/>
<circle cx="4441.97" cy="5941.97" r="31.4961" style=""/>
<circle cx="5001.97" cy="5630" r="31.4961" style=""/>
<circle cx="5001.97" cy="5941.97" r="31.4961" style=""/>
<circle cx="5694.49" cy="6514.09" r="31.4961" style=""/>
<circle cx="5694.49" cy="6714.09" r="31.4961" style=""/>
<circle cx="5694.49" cy="6914.09" r="31.4961" style=""/>
<circle cx="5694.49" cy="7114.09" r="31.4961" style=""/>
<circle cx="5685.67" cy="7413.31" r="31.4961" style=""/>
<circle cx="6294.49" cy="6914.09" r="31.4961" style=""/>
<circle cx="6294.49" cy="7114.09" r="31.4961" style=""/>
<circle cx="6485.67" cy="7413.31" r="31.4961" style=""/>
<circle cx="6631.97" cy="7631.97" r="31.4961" style=""/>
<circle cx="6791.97" cy="7411.97" r="31.4961" style=""/>
<circle cx="7091.97" cy="7631.97" r="31.4961" style=""/>
<circle cx="6294.49" cy="6714.09" r="31.4961" style=""/>
<circle cx="6294.49" cy="6514.09" r="31.4961" style=""/>
<circle cx="6551.97" cy="6711.97" r="31.4961" style=""/>
<circle cx="6791.97" cy="6611.97" r="31.4961" style=""/>
<circle cx="6551.97" cy="5911.97" r="31.4961" style=""/>
<circle cx="6931.1" cy="5907.48" r="31.4961" style=""/>
<circle cx="7001.57" cy="5582.36" r="31.4961" style=""/>
<circle cx="7001.57" cy="5382.36" r="31.4961" style=""/>
<circle cx="7002.36" cy="5021.57" r="31.4961" style=""/>
<circle cx="7002.36" cy="4821.57" r="31.4961" style=""/>
<circle cx="7801.97" cy="4641.97" r="31.4961" style=""/>
<circle cx="8871.97" cy="5341.97" r="31.4961" style=""/>
<circle cx="8871.97" cy="4771.97" r="31.4961" style=""/>
<circle cx="9041.97" cy="4561.97" r="31.4961" style=""/>
<circle cx="9661.97" cy="4561.97" r="31.4961" style=""/>
<circle cx="10882" cy="5721.97" r="31.4961" style=""/>
<circle cx="11282" cy="5721.97" r="31.4961" style=""/>
<circle cx="10882" cy="4921.97" r="31.4961" style=""/>
<circle cx="11282" cy="4921.97" r="31.4961" style=""/>
<circle cx="11462" cy="4601.97" r="31.4961" style=""/>
<circle cx="11722" cy="4601.97" r="31.4961" style=""/>
<circle cx="11722" cy="3801.97" r="31.4961" style=""/>
<circle cx="11462" cy="3801.97" r="31.4961" style=""/>
<circle cx="11590" cy="3390" r="31.4961" style=""/>
<circle cx="10962" cy="3612.76" r="31.4961" style=""/>
<circle cx="10962" cy="4006.46" r="31.4961" style=""/>
<circle cx="10922" cy="4441.97" r="31.4961" style=""/>
<circle cx="10490" cy="3997.95" r="31.4961" style=""/>
<circle cx="10490" cy="3604.25" r="31.4961" style=""/>
<circle cx="10222.8" cy="3502.76" r="31.4961" style=""/>
<circle cx="10222.8" cy="3702.76" r="31.4961" style=""/>
<circle cx="10222.8" cy="3902.76" r="31.4961" style=""/>
<circle cx="10222.8" cy="4102.76" r="31.4961" style=""/>
<circle cx="9941.97" cy="4381.97" r="31.4961" style=""/>
<circle cx="9622.76" cy="4102.76" r="31.4961" style=""/>
<circle cx="9622.76" cy="3902.76" r="31.4961" style=""/>
<circle cx="9622.76" cy="3702.76" r="31.4961" style=""/>
<circle cx="9361.97" cy="3998.82" r="31.4961" style=""/>
<circle cx="9121.97" cy="4201.97" r="31.4961" style=""/>
<circle cx="8841.97" cy="4201.97" r="31.4961" style=""/>
<circle cx="8558.82" cy="4041.97" r="31.4961" style=""/>
<circle cx="8165.12" cy="4041.97" r="31.4961" style=""/>
<circle cx="8899.61" cy="3781.5" r="31.4961" style=""/>
<circle cx="8841.97" cy="3401.97" r="31.4961" style=""/>
<circle cx="9121.97" cy="3401.97" r="31.4961" style=""/>
<circle cx="9361.97" cy="3605.12" r="31.4961" style=""/>
<circle cx="9622.76" cy="3502.76" r="31.4961" style=""/>
<circle cx="9900" cy="3121.97" r="31.4961" style=""/>
<circle cx="10096.9" cy="3121.97" r="31.4961" style=""/>
<circle cx="10122" cy="901.969" r="31.4961" style=""/>
<circle cx="931.969" cy="6171.97" r="39.3701" style=""/>
<circle cx="931.969" cy="5371.97" r="39.3701" style=""/>
<circle cx="1121.97" cy="4161.97" r="39.3701" style=""/>
<circle cx="1121.97" cy="3361.97" r="39.3701" style=""/>
<circle cx="401.969" cy="1841.97" r="39.3701" style=""/>
<circle cx="401.969" cy="1041.97" r="39.3701" style=""/>
<circle cx="1641.97" cy="1021.97" r="39.3701" style=""/>
<circle cx="1641.97" cy="1821.97" r="39.3701" style=""/>
<circle cx="3190" cy="1630" r="39.3701" style=""/>
<circle cx="3190" cy="1830" r="39.3701" style=""/>
<circle cx="3390" cy="1830" r="39.3701" style=""/>
<circle cx="3390" cy="1630" r="39.3701" style=""/>
<circle cx="3590" cy="1630" r="39.3701" style=""/>
<circle cx="3790" cy="1630" r="39.3701" style=""/>
<circle cx="3590" cy="1830" r="39.3701" style=""/>
<circle cx="3790" cy="1830" r="39.3701" style=""/>
<circle cx="3990" cy="1630" r="39.3701" style=""/>
<circle cx="3990" cy="1830" r="39.3701" style=""/>
<circle cx="4237.09" cy="3743.39" r="39.3701" style=""/>
<circle cx="4237.09" cy="4137.09" r="39.3701" style=""/>
<circle cx="2329.61" cy="6981.97" r="39.3701" style=""/>
<circle cx="2529.61" cy="6981.97" r="39.3701" style=""/>
<circle cx="3665.98" cy="6995.67" r="39.3701" style=""/>
<circle cx="3665.98" cy="6601.97" r="39.3701" style=""/>
<circle cx="4121.97" cy="5361.97" r="39.3701" style=""/>
<circle cx="4121.97" cy="5161.97" r="39.3701" style=""/>
<circle cx="4121.97" cy="4961.97" r="39.3701" style=""/>
<circle cx="5942.76" cy="2532.2" r="39.3701" style=""/>
<circle cx="6142.76" cy="2532.2" r="39.3701" style=""/>
<circle cx="6342.76" cy="2532.2" r="39.3701" style=""/>
<circle cx="6542.76" cy="2532.2" r="39.3701" style=""/>
<circle cx="6942.76" cy="2532.2" r="39.3701" style=""/>
<circle cx="7142.76" cy="2532.2" r="39.3701" style=""/>
<circle cx="7342.76" cy="2532.2" r="39.3701" style=""/>
<circle cx="8005.12" cy="3241.97" r="39.3701" style=""/>
<circle cx="8398.82" cy="3241.97" r="39.3701" style=""/>
<circle cx="8081.97" cy="3756.38" r="39.3701" style=""/>
<circle cx="8281.97" cy="3756.38" r="39.3701" style=""/>
<circle cx="8481.97" cy="3756.38" r="39.3701" style=""/>
<circle cx="8154.72" cy="4641.97" r="39.3701" style=""/>
<circle cx="8548.43" cy="4641.97" r="39.3701" style=""/>
<circle cx="9171.97" cy="5381.97" r="39.3701" style=""/>
<circle cx="9205.59" cy="5786.22" r="39.3701" style=""/>
<circle cx="10150.5" cy="5786.22" r="39.3701" style=""/>
<circle cx="10172" cy="5381.97" r="39.3701" style=""/>
<circle cx="10882" cy="6116.38" r="39.3701" style=""/>
<circle cx="11082" cy="6116.38" r="39.3701" style=""/>
<circle cx="11282" cy="6116.38" r="39.3701" style=""/>
<circle cx="11682" cy="6221.97" r="39.3701" style=""/>
<circle cx="11682" cy="5221.97" r="39.3701" style=""/>
<circle cx="11682" cy="2901.97" r="39.3701" style=""/>
<circle cx="10762" cy="2088.11" r="39.3701" style=""/>
<circle cx="10762" cy="2678.66" r="39.3701" style=""/>
<circle cx="11682" cy="1901.97" r="39.3701" style=""/>
<circle cx="12242" cy="1241.97" r="39.3701" style=""/>
<circle cx="11282" cy="801.969" r="39.3701" style=""/>
<circle cx="10242" cy="1241.97" r="39.3701" style=""/>
<circle cx="10002" cy="1241.97" r="39.3701" style=""/>
<circle cx="9261.97" cy="2088.11" r="39.3701" style=""/>
<circle cx="9261.97" cy="2678.66" r="39.3701" style=""/>
<circle cx="8001.97" cy="1241.97" r="39.3701" style=""/>
<circle cx="441.969" cy="5001.97" r="59.0551" style=""/>
<circle cx="441.969" cy="4601.97" r="59.0551" style=""/>
<circle cx="321.969" cy="401.969" r="59.0551" style=""/>
<circle cx="721.969" cy="401.969" r="59.0551" style=""/>
<circle cx="1121.97" cy="401.969" r="59.0551" style=""/>
<circle cx="1641.97" cy="401.969" r="59.0551" style=""/>
<circle cx="2041.97" cy="401.969" r="59.0551" style=""/>
<circle cx="2441.97" cy="401.969" r="59.0551" style=""/>
<circle cx="3321.97" cy="411.969" r="59.0551" style=""/>
<circle cx="3721.97" cy="411.969" r="59.0551" style=""/>
<circle cx="4681.97" cy="401.969" r="59.0551" style=""/>
<circle cx="5081.97" cy="401.969" r="59.0551" style=""/>
<circle cx="5561.97" cy="401.969" r="59.0551" style=""/>
<circle cx="5961.97" cy="401.969" r="59.0551" style=""/>
<circle cx="6801.97" cy="401.969" r="59.0551" style=""/>
<circle cx="7201.97" cy="401.969" r="59.0551" style=""/>
<circle cx="8032.2" cy="441.969" r="59.0551" style=""/>
<circle cx="9811.73" cy="441.969" r="59.0551" style=""/>
<circle cx="10182" cy="381.969" r="59.0551" style=""/>
<circle cx="10582" cy="381.969" r="59.0551" style=""/>
<circle cx="11082" cy="381.969" r="59.0551" style=""/>
<circle cx="11482" cy="381.969" r="59.0551" style=""/>
<circle cx="12122" cy="1841.97" r="59.0551" style=""/>
<circle cx="12122" cy="3041.97" r="59.0551" style=""/>
<circle cx="12162" cy="4201.97" r="59.0551" style=""/>
<circle cx="12162" cy="4601.97" r="59.0551" style=""/>
<circle cx="12162" cy="5321.97" r="59.0551" style=""/>
<circle cx="12162" cy="5721.97" r="59.0551" style=""/>
<circle cx="12162" cy="6121.97" r="59.0551" style=""/>
<circle cx="12267.7" cy="6750" r="59.0551" style=""/>
<circle cx="10488.2" cy="6750" r="59.0551" style=""/>
<circle cx="10154.4" cy="6750.79" r="59.0551" style=""/>
<circle cx="10122" cy="7441.97" r="59.0551" style=""/>
<circle cx="9721.97" cy="7441.97" r="59.0551" style=""/>
<circle cx="9321.97" cy="7441.97" r="59.0551" style=""/>
<circle cx="9205.59" cy="6746.85" r="59.0551" style=""/>
<circle cx="8581.97" cy="7431.73" r="59.0551" style=""/>
<circle cx="7835.67" cy="6793.31" r="59.0551" style=""/>
<circle cx="7835.67" cy="7187.01" r="59.0551" style=""/>
<circle cx="7048.27" cy="6990.16" r="59.0551" style=""/>
<circle cx="8581.97" cy="5652.2" r="59.0551" style=""/>
<circle cx="9681.97" cy="5632.68" r="59.0551" style=""/>
</svg>
