M48
; DRILL file {KiCad 8.0.4} date 2024-08-07T08:51:15+0200
; FORMAT={-:-/ absolute / metric / decimal}
; #@! TF.CreationDate,2024-08-07T08:51:15+02:00
; #@! TF.GenerationSoftware,Kicad,Pcbnew,8.0.4
; #@! TF.FileFunction,Plated,1,2,PTH
FMAT,2
METRIC
; #@! TA.AperFunction,Plated,PTH,ViaDrill
T1C0.100
; #@! TA.AperFunction,Plated,PTH,ViaDrill
T2C0.300
; #@! TA.AperFunction,Plated,PTH,ComponentDrill
T3C0.500
; #@! TA.AperFunction,Plated,PTH,ComponentDrill
T4C0.750
; #@! TA.AperFunction,Plated,PTH,ComponentDrill
T5C0.800
; #@! TA.AperFunction,Plated,PTH,ComponentDrill
T6C0.900
; #@! TA.AperFunction,Plated,PTH,ComponentDrill
T7C1.000
; #@! TA.AperFunction,Plated,PTH,ComponentDrill
T8C1.100
; #@! TA.AperFunction,Plated,PTH,ComponentDrill
T9C1.200
; #@! TA.AperFunction,Plated,PTH,ComponentDrill
T10C1.300
; #@! TA.AperFunction,Plated,PTH,ComponentDrill
T11C1.500
; #@! TA.AperFunction,Plated,PTH,ComponentDrill
T12C1.520
; #@! TA.AperFunction,Plated,PTH,ComponentDrill
T13C1.600
%
G90
G05
T1
X57.404Y-69.596
T2
X51.816Y-17.018
X62.484Y-17.018
X87.63Y-41.656
X87.63Y-49.276
X96.012Y-59.182
X99.06Y-83.312
X99.568Y-59.182
X103.378Y-50.8
X110.236Y-55.372
X110.744Y-14.683
X110.744Y-19.304
T3
X41.656Y-76.2
X49.784Y-13.208
X50.292Y-24.892
X62.23Y-20.828
X86.36Y-24.638
X95.25Y-52.07
X100.965Y-24.638
X121.92Y-43.612
X154.94Y-53.848
T4
X117.348Y-79.007
X118.618Y-77.747
X118.618Y-80.287
X122.946Y-15.748
X124.206Y-17.018
X125.486Y-15.748
T5
X9.184Y-15.748
X14.184Y-15.748
X27.94Y-54.61
X32.94Y-54.61
X43.053Y-89.027
X43.053Y-93.091
X45.76Y-80.518
X49.53Y-50.292
X50.76Y-80.518
X52.07Y-46.736
X52.959Y-53.848
X52.959Y-64.008
X53.213Y-89.027
X53.213Y-93.091
X57.15Y-56.515
X57.15Y-64.135
X59.69Y-50.292
X59.69Y-56.515
X59.69Y-64.135
X62.23Y-46.736
X62.23Y-56.515
X62.23Y-64.135
X62.992Y-73.533
X62.992Y-83.693
X64.77Y-56.515
X64.77Y-64.135
X67.31Y-23.876
X67.31Y-34.036
X67.31Y-56.515
X67.31Y-64.135
X68.199Y-73.533
X68.199Y-83.693
X68.707Y-90.805
X68.707Y-93.98
X69.85Y-56.515
X69.85Y-64.135
X71.12Y-10.668
X71.12Y-20.828
X71.12Y-24.638
X71.12Y-67.564
X71.668Y-83.82
X72.39Y-56.515
X72.39Y-64.135
X72.43Y-52.705
X72.455Y-72.136
X73.62Y-24.638
X74.93Y-56.515
X74.93Y-64.135
X74.955Y-72.136
X76.12Y-67.564
X76.668Y-83.82
X77.43Y-52.705
X77.47Y-56.515
X77.47Y-64.135
X78.74Y-13.883
X78.74Y-18.883
X78.867Y-90.805
X78.867Y-93.98
X80.01Y-56.515
X80.01Y-64.135
X82.55Y-56.515
X82.55Y-64.135
X83.185Y-24.003
X83.185Y-34.163
X85.09Y-56.515
X85.09Y-64.135
X86.36Y-10.668
X86.36Y-20.828
X87.63Y-56.515
X87.63Y-64.135
X90.17Y-56.515
X90.17Y-64.135
X94.996Y-76.2
X95.25Y-55.397
X96.52Y-10.668
X96.52Y-20.828
X96.52Y-24.003
X96.52Y-34.163
X100.33Y-10.668
X100.33Y-20.828
X105.156Y-76.2
X105.41Y-55.397
X106.426Y-24.892
X106.99Y-58.821
X106.99Y-61.361
X107.95Y-13.883
X107.95Y-18.883
X115.316Y-11.938
X116.586Y-24.892
X117.119Y-48.035
X117.119Y-53.035
X117.15Y-58.821
X117.15Y-61.361
X121.793Y-48.666
X121.793Y-58.826
X125.197Y-58.852
X125.197Y-69.012
X125.476Y-11.938
X128.915Y-56.322
X128.915Y-58.862
X128.915Y-61.402
X128.915Y-63.942
X130.175Y-47.919
X130.175Y-50.419
X130.556Y-23.876
X130.556Y-29.464
X136.535Y-56.322
X136.535Y-58.862
X136.535Y-61.402
X136.535Y-63.942
X140.335Y-57.662
X140.335Y-62.662
X140.716Y-23.876
X140.716Y-29.464
X146.329Y-57.77
X146.329Y-62.77
T6
X43.053Y-84.963
X52.07Y-40.005
X52.07Y-42.545
X53.213Y-84.963
X67.31Y-10.668
X67.31Y-20.828
X68.58Y-87.376
X78.74Y-87.376
X82.55Y-10.668
X82.55Y-20.828
X104.14Y-10.668
X104.14Y-20.828
T7
X23.876Y-50.546
X23.876Y-63.246
X38.608Y-28.448
X43.18Y-53.391
X43.18Y-58.391
X43.608Y-28.448
X92.964Y-88.392
X92.964Y-90.932
X95.504Y-88.392
X95.504Y-90.932
X98.044Y-88.392
X98.044Y-90.932
X100.584Y-88.392
X100.584Y-90.932
X103.124Y-88.392
X103.124Y-90.932
X107.7Y-49.657
X112.7Y-49.657
X124.714Y-72.413
X124.714Y-85.113
X130.61Y-72.686
X130.61Y-84.686
X133.858Y-14.732
X141.859Y-46.517
X141.859Y-51.517
X146.558Y-14.732
T8
X27.285Y-46.355
X28.985Y-46.355
X30.685Y-46.355
X32.385Y-46.355
X34.085Y-46.355
X110.261Y-43.917
X112.801Y-43.917
X115.341Y-43.917
X145.725Y-23.876
X145.725Y-26.416
X145.725Y-28.956
T9
X7.662Y-47.244
X7.74Y-27.94
X12.065Y-69.596
X12.065Y-80.264
X15.162Y-47.244
X15.24Y-27.94
X37.465Y-69.596
X37.465Y-80.264
T10
X5.08Y-60.452
X20.32Y-60.452
X29.21Y-26.71
X29.21Y-31.71
X128.66Y-78.636
X142.81Y-84.686
X142.86Y-72.636
T11
X15.5Y-91.44
X22.612Y-17.272
X38.1Y-91.44
X45.212Y-17.272
X120.78Y-92.456
X143.38Y-92.456
X154.432Y-14.992
X154.432Y-37.592
T12
X5.715Y-68.453
X5.715Y-73.533
X5.715Y-79.248
X5.715Y-84.328
X17.983Y-5.588
X23.063Y-5.588
X28.067Y-5.588
X33.147Y-5.588
X38.151Y-5.588
X43.231Y-5.588
X48.209Y-5.588
X53.289Y-5.588
X58.801Y-92.075
X63.881Y-92.075
X66.091Y-5.588
X71.171Y-5.588
X76.251Y-5.588
X81.229Y-5.588
X86.309Y-5.588
X91.288Y-5.588
X96.368Y-5.588
X115.316Y-5.588
X120.396Y-5.588
X134.62Y-5.588
X139.7Y-5.588
X144.78Y-5.588
X154.94Y-60.325
X154.94Y-65.405
X154.94Y-73.556
X154.94Y-78.636
X154.94Y-83.716
T13
X29.21Y-38.608
X44.45Y-38.608
M30
