%TF.GenerationSoftware,KiCad,Pcbnew,8.0.4*%
%TF.CreationDate,2024-08-07T08:51:47+02:00*%
%TF.ProjectId,V2_board-ecar,56325f62-6f61-4726-942d-656361722e6b,rev?*%
%TF.SameCoordinates,Original*%
%TF.FileFunction,Copper,L2,Bot*%
%TF.FilePolarity,Positive*%
%FSLAX46Y46*%
G04 Gerber Fmt 4.6, Leading zero omitted, Abs format (unit mm)*
G04 Created by KiCad (PCBNEW 8.0.4) date 2024-08-07 08:51:47*
%MOMM*%
%LPD*%
G01*
G04 APERTURE LIST*
G04 Aperture macros list*
%AMRoundRect*
0 Rectangle with rounded corners*
0 $1 Rounding radius*
0 $2 $3 $4 $5 $6 $7 $8 $9 X,Y pos of 4 corners*
0 Add a 4 corners polygon primitive as box body*
4,1,4,$2,$3,$4,$5,$6,$7,$8,$9,$2,$3,0*
0 Add four circle primitives for the rounded corners*
1,1,$1+$1,$2,$3*
1,1,$1+$1,$4,$5*
1,1,$1+$1,$6,$7*
1,1,$1+$1,$8,$9*
0 Add four rect primitives between the rounded corners*
20,1,$1+$1,$2,$3,$4,$5,0*
20,1,$1+$1,$4,$5,$6,$7,0*
20,1,$1+$1,$6,$7,$8,$9,0*
20,1,$1+$1,$8,$9,$2,$3,0*%
G04 Aperture macros list end*
%TA.AperFunction,Conductor*%
%ADD10C,2.000000*%
%TD*%
%TA.AperFunction,Conductor*%
%ADD11C,1.500000*%
%TD*%
%TA.AperFunction,Conductor*%
%ADD12C,0.700000*%
%TD*%
%TA.AperFunction,ComponentPad*%
%ADD13R,2.600000X2.600000*%
%TD*%
%TA.AperFunction,ComponentPad*%
%ADD14O,2.600000X2.600000*%
%TD*%
%TA.AperFunction,ComponentPad*%
%ADD15R,0.850000X0.850000*%
%TD*%
%TA.AperFunction,ComponentPad*%
%ADD16C,1.600000*%
%TD*%
%TA.AperFunction,ComponentPad*%
%ADD17R,2.000000X2.000000*%
%TD*%
%TA.AperFunction,ComponentPad*%
%ADD18C,2.000000*%
%TD*%
%TA.AperFunction,ComponentPad*%
%ADD19O,2.000000X2.000000*%
%TD*%
%TA.AperFunction,ComponentPad*%
%ADD20R,1.800000X1.800000*%
%TD*%
%TA.AperFunction,ComponentPad*%
%ADD21C,1.800000*%
%TD*%
%TA.AperFunction,ComponentPad*%
%ADD22R,3.000000X3.000000*%
%TD*%
%TA.AperFunction,ComponentPad*%
%ADD23C,3.000000*%
%TD*%
%TA.AperFunction,ComponentPad*%
%ADD24O,1.600000X1.600000*%
%TD*%
%TA.AperFunction,ComponentPad*%
%ADD25O,1.800000X1.800000*%
%TD*%
%TA.AperFunction,ComponentPad*%
%ADD26R,1.600000X1.600000*%
%TD*%
%TA.AperFunction,ComponentPad*%
%ADD27R,2.400000X1.600000*%
%TD*%
%TA.AperFunction,ComponentPad*%
%ADD28O,2.400000X1.600000*%
%TD*%
%TA.AperFunction,ComponentPad*%
%ADD29R,2.400000X2.400000*%
%TD*%
%TA.AperFunction,ComponentPad*%
%ADD30C,2.400000*%
%TD*%
%TA.AperFunction,ComponentPad*%
%ADD31C,2.600000*%
%TD*%
%TA.AperFunction,ComponentPad*%
%ADD32R,1.300000X1.300000*%
%TD*%
%TA.AperFunction,ComponentPad*%
%ADD33C,1.300000*%
%TD*%
%TA.AperFunction,ComponentPad*%
%ADD34R,1.905000X2.000000*%
%TD*%
%TA.AperFunction,ComponentPad*%
%ADD35O,1.905000X2.000000*%
%TD*%
%TA.AperFunction,ComponentPad*%
%ADD36R,2.000000X1.905000*%
%TD*%
%TA.AperFunction,ComponentPad*%
%ADD37O,2.000000X1.905000*%
%TD*%
%TA.AperFunction,ComponentPad*%
%ADD38R,1.275000X1.800000*%
%TD*%
%TA.AperFunction,ComponentPad*%
%ADD39O,1.275000X1.800000*%
%TD*%
%TA.AperFunction,ComponentPad*%
%ADD40C,2.500000*%
%TD*%
%TA.AperFunction,ComponentPad*%
%ADD41RoundRect,0.250000X-0.600000X0.600000X-0.600000X-0.600000X0.600000X-0.600000X0.600000X0.600000X0*%
%TD*%
%TA.AperFunction,ComponentPad*%
%ADD42C,1.700000*%
%TD*%
%TA.AperFunction,ComponentPad*%
%ADD43R,1.600000X2.400000*%
%TD*%
%TA.AperFunction,ComponentPad*%
%ADD44O,1.600000X2.400000*%
%TD*%
%TA.AperFunction,ComponentPad*%
%ADD45R,3.200000X3.200000*%
%TD*%
%TA.AperFunction,ComponentPad*%
%ADD46O,3.200000X3.200000*%
%TD*%
%TA.AperFunction,ComponentPad*%
%ADD47O,2.400000X2.400000*%
%TD*%
%TA.AperFunction,ViaPad*%
%ADD48C,0.600000*%
%TD*%
%TA.AperFunction,ViaPad*%
%ADD49C,0.300000*%
%TD*%
%TA.AperFunction,Conductor*%
%ADD50C,2.500000*%
%TD*%
%TA.AperFunction,Conductor*%
%ADD51C,3.000000*%
%TD*%
%TA.AperFunction,Conductor*%
%ADD52C,1.700000*%
%TD*%
%TA.AperFunction,Conductor*%
%ADD53C,1.000000*%
%TD*%
%TA.AperFunction,Conductor*%
%ADD54C,4.000000*%
%TD*%
G04 APERTURE END LIST*
D10*
%TO.N,+24V filtered*%
X62984000Y-17018000D02*
G75*
G02*
X61984000Y-17018000I-500000J0D01*
G01*
X61984000Y-17018000D02*
G75*
G02*
X62984000Y-17018000I500000J0D01*
G01*
%TO.N,+5V*%
X110736000Y-55372000D02*
G75*
G02*
X109736000Y-55372000I-500000J0D01*
G01*
X109736000Y-55372000D02*
G75*
G02*
X110736000Y-55372000I500000J0D01*
G01*
D11*
%TO.N,/Mosfet (fan)*%
X88138000Y-41656000D02*
G75*
G02*
X87138000Y-41656000I-500000J0D01*
G01*
X87138000Y-41656000D02*
G75*
G02*
X88138000Y-41656000I500000J0D01*
G01*
%TO.N,GND*%
X111244000Y-14732000D02*
G75*
G02*
X110244000Y-14732000I-500000J0D01*
G01*
X110244000Y-14732000D02*
G75*
G02*
X111244000Y-14732000I500000J0D01*
G01*
%TO.N,/RESET*%
X99560000Y-83312000D02*
G75*
G02*
X98560000Y-83312000I-500000J0D01*
G01*
X98560000Y-83312000D02*
G75*
G02*
X99560000Y-83312000I500000J0D01*
G01*
D10*
X57904000Y-69596000D02*
G75*
G02*
X56904000Y-69596000I-500000J0D01*
G01*
X56904000Y-69596000D02*
G75*
G02*
X57904000Y-69596000I500000J0D01*
G01*
D11*
%TO.N,/Mosfet (fan)*%
X88130000Y-49276000D02*
G75*
G02*
X87130000Y-49276000I-500000J0D01*
G01*
X87130000Y-49276000D02*
G75*
G02*
X88130000Y-49276000I500000J0D01*
G01*
D10*
%TO.N,+24V filtered*%
X52316000Y-17018000D02*
G75*
G02*
X51316000Y-17018000I-500000J0D01*
G01*
X51316000Y-17018000D02*
G75*
G02*
X52316000Y-17018000I500000J0D01*
G01*
D11*
%TO.N,GND*%
X111244000Y-19304000D02*
G75*
G02*
X110244000Y-19304000I-500000J0D01*
G01*
X110244000Y-19304000D02*
G75*
G02*
X111244000Y-19304000I500000J0D01*
G01*
D12*
%TO.N,/MOSI*%
X100068000Y-59190000D02*
G75*
G02*
X99068000Y-59190000I-500000J0D01*
G01*
X99068000Y-59190000D02*
G75*
G02*
X100068000Y-59190000I500000J0D01*
G01*
D10*
%TO.N,+5V*%
X103878000Y-50800000D02*
G75*
G02*
X102878000Y-50800000I-500000J0D01*
G01*
X102878000Y-50800000D02*
G75*
G02*
X103878000Y-50800000I500000J0D01*
G01*
D12*
%TO.N,/MOSI*%
X96512000Y-59190000D02*
G75*
G02*
X95512000Y-59190000I-500000J0D01*
G01*
X95512000Y-59190000D02*
G75*
G02*
X96512000Y-59190000I500000J0D01*
G01*
%TD*%
D13*
%TO.P,D3,1,A1*%
%TO.N,GND*%
X5080000Y-60452000D03*
D14*
%TO.P,D3,2,A2*%
%TO.N,Net-(D1-K)*%
X20320000Y-60452000D03*
%TD*%
D15*
%TO.P,J10,1,Pin_1*%
%TO.N,+24V filtered*%
X49784000Y-13208000D03*
%TD*%
D16*
%TO.P,C6,1*%
%TO.N,+5V*%
X77430000Y-52705000D03*
%TO.P,C6,2*%
%TO.N,GND*%
X72430000Y-52705000D03*
%TD*%
D15*
%TO.P,J12,1,Pin_1*%
%TO.N,+5V*%
X50292000Y-24892000D03*
%TD*%
D17*
%TO.P,BZ1,1,+*%
%TO.N,Net-(BZ1-+)*%
X43180000Y-53390800D03*
D18*
%TO.P,BZ1,2,-*%
%TO.N,GND*%
X43180000Y-58390800D03*
%TD*%
D17*
%TO.P,D11,1,K*%
%TO.N,+5V*%
X124714000Y-72413000D03*
D19*
%TO.P,D11,2,A*%
%TO.N,Net-(D11-A)*%
X124714000Y-85113000D03*
%TD*%
D17*
%TO.P,C5,1*%
%TO.N,+5V*%
X38608000Y-28448000D03*
D18*
%TO.P,C5,2*%
%TO.N,GND*%
X43608000Y-28448000D03*
%TD*%
D20*
%TO.P,D4,1,A*%
%TO.N,Net-(D4-A)*%
X52070000Y-42545000D03*
D21*
%TO.P,D4,2,K*%
%TO.N,GND*%
X52070000Y-40005000D03*
%TD*%
D22*
%TO.P,J24,1,Pin_1*%
%TO.N,Net-(D9-A)*%
X144780000Y-5588000D03*
D23*
%TO.P,J24,2,Pin_2*%
%TO.N,Net-(D9-K)*%
X139700000Y-5588000D03*
%TO.P,J24,3,Pin_3*%
%TO.N,GND*%
X134620000Y-5588000D03*
%TD*%
D16*
%TO.P,R20,1*%
%TO.N,Net-(D7-K)*%
X96520000Y-24003000D03*
D24*
%TO.P,R20,2*%
%TO.N,/analog2 (30V Batt)*%
X96520000Y-34163000D03*
%TD*%
D16*
%TO.P,R23,1*%
%TO.N,Net-(J17-Pin_2)*%
X68707000Y-93980000D03*
D24*
%TO.P,R23,2*%
%TO.N,GND*%
X78867000Y-93980000D03*
%TD*%
D16*
%TO.P,R24,1*%
%TO.N,Net-(J17-Pin_1)*%
X53213000Y-89027000D03*
D24*
%TO.P,R24,2*%
%TO.N,Net-(D12-K)*%
X43053000Y-89027000D03*
%TD*%
D16*
%TO.P,R19,1*%
%TO.N,GND*%
X130556000Y-23876000D03*
D24*
%TO.P,R19,2*%
%TO.N,Net-(Q2-G)*%
X140716000Y-23876000D03*
%TD*%
D16*
%TO.P,R14,1*%
%TO.N,Net-(J13-Pin_1)*%
X86360000Y-10668000D03*
D24*
%TO.P,R14,2*%
%TO.N,Net-(D6-K)*%
X86360000Y-20828000D03*
%TD*%
D20*
%TO.P,D5,1,K*%
%TO.N,Net-(D5-K)*%
X67310000Y-20828000D03*
D25*
%TO.P,D5,2,A*%
%TO.N,GND*%
X67310000Y-10668000D03*
%TD*%
D26*
%TO.P,C13,1*%
%TO.N,+18V*%
X130175000Y-50419000D03*
D16*
%TO.P,C13,2*%
%TO.N,GND*%
X130175000Y-47919000D03*
%TD*%
%TO.P,R11,1*%
%TO.N,/analog0 (gas)*%
X67310000Y-34036000D03*
D24*
%TO.P,R11,2*%
%TO.N,Net-(D5-K)*%
X67310000Y-23876000D03*
%TD*%
D16*
%TO.P,C12,1*%
%TO.N,+18V*%
X140335000Y-57661800D03*
%TO.P,C12,2*%
%TO.N,GND*%
X140335000Y-62661800D03*
%TD*%
%TO.P,R9,1*%
%TO.N,+18V*%
X121793000Y-48666400D03*
D24*
%TO.P,R9,2*%
%TO.N,Net-(U3-INPUT)*%
X121793000Y-58826400D03*
%TD*%
D20*
%TO.P,D6,1,K*%
%TO.N,Net-(D6-K)*%
X82550000Y-20828000D03*
D25*
%TO.P,D6,2,A*%
%TO.N,GND*%
X82550000Y-10668000D03*
%TD*%
D18*
%TO.P,C2,1*%
%TO.N,+24V filtered*%
X107699800Y-49657000D03*
%TO.P,C2,2*%
%TO.N,GND*%
X112699800Y-49657000D03*
%TD*%
D27*
%TO.P,OC1,1*%
%TO.N,Net-(OC1-Pad1)*%
X106989800Y-58821400D03*
D28*
%TO.P,OC1,2*%
%TO.N,GND*%
X106989800Y-61361400D03*
%TO.P,OC1,3*%
X117149800Y-61361400D03*
%TO.P,OC1,4*%
%TO.N,Net-(U3-INPUT)*%
X117149800Y-58821400D03*
%TD*%
D23*
%TO.P,F2,1*%
%TO.N,Net-(D1-K)*%
X22612000Y-17272000D03*
%TO.P,F2,2*%
%TO.N,+24V filtered*%
X45212000Y-17272000D03*
%TD*%
D15*
%TO.P,J20,1,Pin_1*%
%TO.N,Net-(D7-K)*%
X100965000Y-24638000D03*
%TD*%
D16*
%TO.P,C18,1*%
%TO.N,Net-(D13-K)*%
X76668000Y-83820000D03*
%TO.P,C18,2*%
%TO.N,GND*%
X71668000Y-83820000D03*
%TD*%
D29*
%TO.P,C9,1*%
%TO.N,Net-(D1-K)*%
X15161780Y-47244000D03*
D30*
%TO.P,C9,2*%
%TO.N,GND*%
X7661780Y-47244000D03*
%TD*%
D16*
%TO.P,R4,1*%
%TO.N,+5V*%
X52959000Y-53848000D03*
D24*
%TO.P,R4,2*%
%TO.N,/RESET*%
X52959000Y-64008000D03*
%TD*%
D31*
%TO.P,L1,1,1*%
%TO.N,Net-(D2-K)*%
X29210000Y-31710000D03*
%TO.P,L1,2,2*%
%TO.N,+5V*%
X29210000Y-26710000D03*
%TD*%
D22*
%TO.P,J18,1,Pin_1*%
%TO.N,Net-(J18-Pin_1)*%
X154940000Y-73556000D03*
D23*
%TO.P,J18,2,Pin_2*%
%TO.N,Net-(J18-Pin_2)*%
X154940000Y-78636000D03*
%TO.P,J18,3,Pin_3*%
%TO.N,Net-(J18-Pin_3)*%
X154940000Y-83716000D03*
%TD*%
D29*
%TO.P,C4,1*%
%TO.N,Net-(D1-K)*%
X15240000Y-27940000D03*
D30*
%TO.P,C4,2*%
%TO.N,GND*%
X7740000Y-27940000D03*
%TD*%
D16*
%TO.P,C17,1*%
%TO.N,Net-(D12-K)*%
X45760000Y-80518000D03*
%TO.P,C17,2*%
%TO.N,GND*%
X50760000Y-80518000D03*
%TD*%
%TO.P,R7,1*%
%TO.N,Net-(D4-A)*%
X52070000Y-46736000D03*
D24*
%TO.P,R7,2*%
%TO.N,/LED*%
X62230000Y-46736000D03*
%TD*%
D22*
%TO.P,J2,1,Pin_1*%
%TO.N,GND*%
X5715000Y-68453000D03*
D23*
%TO.P,J2,2,Pin_2*%
X5715000Y-73533000D03*
%TD*%
D16*
%TO.P,R18,1*%
%TO.N,Net-(Q2-G)*%
X140716000Y-29464000D03*
D24*
%TO.P,R18,2*%
%TO.N,/Mosfet (fan)*%
X130556000Y-29464000D03*
%TD*%
D32*
%TO.P,Q3,1,C*%
%TO.N,Net-(D11-A)*%
X118618000Y-80287000D03*
D33*
%TO.P,Q3,2,B*%
%TO.N,Net-(Q3-B)*%
X117348000Y-79007000D03*
%TO.P,Q3,3,E*%
%TO.N,GND*%
X118618000Y-77747000D03*
%TD*%
D17*
%TO.P,C19,1*%
%TO.N,+18V*%
X141859000Y-51516677D03*
D18*
%TO.P,C19,2*%
%TO.N,GND*%
X141859000Y-46516677D03*
%TD*%
D16*
%TO.P,C15,1*%
%TO.N,Net-(D6-K)*%
X78740000Y-18883000D03*
%TO.P,C15,2*%
%TO.N,GND*%
X78740000Y-13883000D03*
%TD*%
D23*
%TO.P,F4,1*%
%TO.N,Net-(Q2-D)*%
X154432000Y-37592000D03*
%TO.P,F4,2*%
%TO.N,Net-(D9-A)*%
X154432000Y-14992000D03*
%TD*%
D34*
%TO.P,U1,1,IN*%
%TO.N,+24V filtered*%
X110261400Y-43916600D03*
D35*
%TO.P,U1,2,GND*%
%TO.N,GND*%
X112801400Y-43916600D03*
%TO.P,U1,3,OUT*%
%TO.N,+18V*%
X115341400Y-43916600D03*
%TD*%
D16*
%TO.P,C16,1*%
%TO.N,Net-(D7-K)*%
X107950000Y-18883000D03*
%TO.P,C16,2*%
%TO.N,GND*%
X107950000Y-13883000D03*
%TD*%
D22*
%TO.P,J6,1,Pin_1*%
%TO.N,+5V*%
X120396000Y-5588000D03*
D23*
%TO.P,J6,2,Pin_2*%
%TO.N,Net-(J6-Pin_2)*%
X115316000Y-5588000D03*
%TD*%
D36*
%TO.P,Q2,1,G*%
%TO.N,Net-(Q2-G)*%
X145725000Y-28956000D03*
D37*
%TO.P,Q2,2,D*%
%TO.N,Net-(Q2-D)*%
X145725000Y-26416000D03*
%TO.P,Q2,3,S*%
%TO.N,GND*%
X145725000Y-23876000D03*
%TD*%
D17*
%TO.P,D1,1,K*%
%TO.N,Net-(D1-K)*%
X23876000Y-50546000D03*
D19*
%TO.P,D1,2,A*%
%TO.N,GND*%
X23876000Y-63246000D03*
%TD*%
D23*
%TO.P,F1,1*%
%TO.N,+BATT*%
X15500000Y-91440000D03*
%TO.P,F1,2*%
%TO.N,Net-(F1-Pad2)*%
X38100000Y-91440000D03*
%TD*%
D22*
%TO.P,J14,1,Pin_1*%
%TO.N,GND*%
X154940000Y-65405000D03*
D23*
%TO.P,J14,2,Pin_2*%
%TO.N,Net-(J14-Pin_2)*%
X154940000Y-60325000D03*
%TD*%
D16*
%TO.P,R10,1*%
%TO.N,Net-(U3-INPUT)*%
X125196600Y-58851800D03*
D24*
%TO.P,R10,2*%
%TO.N,GND*%
X125196600Y-69011800D03*
%TD*%
D16*
%TO.P,C10,1*%
%TO.N,Net-(D1-K)*%
X14184000Y-15748000D03*
%TO.P,C10,2*%
%TO.N,GND*%
X9184000Y-15748000D03*
%TD*%
D38*
%TO.P,U2,1,VIN*%
%TO.N,+24V filtered*%
X27285000Y-46355000D03*
D39*
%TO.P,U2,2,OUT*%
%TO.N,Net-(D2-K)*%
X28985000Y-46355000D03*
%TO.P,U2,3,GND*%
%TO.N,GND*%
X30685000Y-46355000D03*
%TO.P,U2,4,FB*%
%TO.N,+5V*%
X32385000Y-46355000D03*
%TO.P,U2,5,~{ON}/OFF*%
%TO.N,GND*%
X34085000Y-46355000D03*
%TD*%
D16*
%TO.P,R5,1*%
%TO.N,/LED-ext*%
X106426000Y-24892000D03*
D24*
%TO.P,R5,2*%
%TO.N,Net-(Q1-B)*%
X116586000Y-24892000D03*
%TD*%
D16*
%TO.P,R8,1*%
%TO.N,Net-(J6-Pin_2)*%
X115316000Y-11938000D03*
D24*
%TO.P,R8,2*%
%TO.N,Net-(Q1-C)*%
X125476000Y-11938000D03*
%TD*%
D20*
%TO.P,D13,1,K*%
%TO.N,Net-(D13-K)*%
X78740000Y-87376000D03*
D25*
%TO.P,D13,2,A*%
%TO.N,GND*%
X68580000Y-87376000D03*
%TD*%
D17*
%TO.P,D9,1,K*%
%TO.N,Net-(D9-K)*%
X133858000Y-14732000D03*
D19*
%TO.P,D9,2,A*%
%TO.N,Net-(D9-A)*%
X146558000Y-14732000D03*
%TD*%
D20*
%TO.P,D7,1,K*%
%TO.N,Net-(D7-K)*%
X104140000Y-20828000D03*
D25*
%TO.P,D7,2,A*%
%TO.N,GND*%
X104140000Y-10668000D03*
%TD*%
D22*
%TO.P,J1,1,Pin_1*%
%TO.N,+BATT*%
X5715000Y-79248000D03*
D23*
%TO.P,J1,2,Pin_2*%
X5715000Y-84328000D03*
%TD*%
D16*
%TO.P,R16,1*%
%TO.N,Net-(J15-Pin_1)*%
X96520000Y-10668000D03*
D24*
%TO.P,R16,2*%
%TO.N,Net-(D7-K)*%
X96520000Y-20828000D03*
%TD*%
D23*
%TO.P,K1,1*%
%TO.N,Net-(F3-Pad1)*%
X128660000Y-78636000D03*
D40*
%TO.P,K1,2*%
%TO.N,Net-(D11-A)*%
X130610000Y-84686000D03*
D23*
%TO.P,K1,3*%
%TO.N,Net-(J18-Pin_3)*%
X142810000Y-84686000D03*
%TO.P,K1,4*%
%TO.N,Net-(J18-Pin_1)*%
X142860000Y-72636000D03*
D40*
%TO.P,K1,5*%
%TO.N,+5V*%
X130610000Y-72686000D03*
%TD*%
D26*
%TO.P,C14,1*%
%TO.N,+18V*%
X146329400Y-57769949D03*
D16*
%TO.P,C14,2*%
%TO.N,GND*%
X146329400Y-62769949D03*
%TD*%
D15*
%TO.P,J11,1,Pin_1*%
%TO.N,+18V*%
X121920000Y-43611800D03*
%TD*%
D22*
%TO.P,J13,1,Pin_1*%
%TO.N,Net-(J13-Pin_1)*%
X86309200Y-5588000D03*
D23*
%TO.P,J13,2,Pin_2*%
%TO.N,+5V*%
X81229200Y-5588000D03*
%TD*%
D16*
%TO.P,R6,1*%
%TO.N,/PWM_0*%
X95250000Y-55397400D03*
D24*
%TO.P,R6,2*%
%TO.N,Net-(OC1-Pad1)*%
X105410000Y-55397400D03*
%TD*%
D41*
%TO.P,P1,1*%
%TO.N,/MOSI*%
X103124000Y-88392000D03*
D42*
%TO.P,P1,2*%
%TO.N,+5V*%
X103124000Y-90932000D03*
%TO.P,P1,3*%
%TO.N,unconnected-(P1-Pad3)*%
X100584000Y-88392000D03*
%TO.P,P1,4*%
%TO.N,unconnected-(P1-Pad4)*%
X100584000Y-90932000D03*
%TO.P,P1,5*%
%TO.N,/RESET*%
X98044000Y-88392000D03*
%TO.P,P1,6*%
%TO.N,GND*%
X98044000Y-90932000D03*
%TO.P,P1,7*%
%TO.N,/SCK*%
X95504000Y-88392000D03*
%TO.P,P1,8*%
%TO.N,GND*%
X95504000Y-90932000D03*
%TO.P,P1,9*%
%TO.N,/MISO*%
X92964000Y-88392000D03*
%TO.P,P1,10*%
%TO.N,GND*%
X92964000Y-90932000D03*
%TD*%
D16*
%TO.P,C3,1*%
%TO.N,+18V*%
X117119400Y-48035200D03*
%TO.P,C3,2*%
%TO.N,GND*%
X117119400Y-53035200D03*
%TD*%
%TO.P,R27,1*%
%TO.N,Net-(D13-K)*%
X68199000Y-83693000D03*
D24*
%TO.P,R27,2*%
%TO.N,/Switch2*%
X68199000Y-73533000D03*
%TD*%
D43*
%TO.P,IC1,1,PC6(~{RESET})*%
%TO.N,/RESET*%
X57150000Y-64135000D03*
D44*
%TO.P,IC1,2,(RXD)PD0*%
%TO.N,unconnected-(IC1-(RXD)PD0-Pad2)*%
X59690000Y-64135000D03*
%TO.P,IC1,3,(TXD)PD1*%
%TO.N,unconnected-(IC1-(TXD)PD1-Pad3)*%
X62230000Y-64135000D03*
%TO.P,IC1,4,(INT0)PD2*%
%TO.N,/Switch1*%
X64770000Y-64135000D03*
%TO.P,IC1,5,(INT1)PD3*%
%TO.N,/Switch2*%
X67310000Y-64135000D03*
%TO.P,IC1,6,(XCK/T0)PD4*%
%TO.N,unconnected-(IC1-(XCK{slash}T0)PD4-Pad6)*%
X69850000Y-64135000D03*
%TO.P,IC1,7,VCC*%
%TO.N,+5V*%
X72390000Y-64135000D03*
%TO.P,IC1,8,GND*%
%TO.N,GND*%
X74930000Y-64135000D03*
%TO.P,IC1,9,PB6(XTAL1/TOSC1)*%
%TO.N,unconnected-(IC1-PB6(XTAL1{slash}TOSC1)-Pad9)*%
X77470000Y-64135000D03*
%TO.P,IC1,10,PB7(XTAL2/TOSC2)*%
%TO.N,/Relay (light)*%
X80010000Y-64135000D03*
%TO.P,IC1,11,(T1)PD5*%
%TO.N,unconnected-(IC1-(T1)PD5-Pad11)*%
X82550000Y-64135000D03*
%TO.P,IC1,12,(AIN0)PD6*%
%TO.N,unconnected-(IC1-(AIN0)PD6-Pad12)*%
X85090000Y-64135000D03*
%TO.P,IC1,13,(AIN1)PD7*%
%TO.N,unconnected-(IC1-(AIN1)PD7-Pad13)*%
X87630000Y-64135000D03*
%TO.P,IC1,14,(ICP)PB0*%
%TO.N,unconnected-(IC1-(ICP)PB0-Pad14)*%
X90170000Y-64135000D03*
%TO.P,IC1,15,(OC1A)PB1*%
%TO.N,/PWM_0*%
X90170000Y-56515000D03*
%TO.P,IC1,16,(~{SS}/OC1B)PB2*%
%TO.N,/Mosfet (fan)*%
X87630000Y-56515000D03*
%TO.P,IC1,17,(MOSI/OC2)PB3*%
%TO.N,/MOSI*%
X85090000Y-56515000D03*
%TO.P,IC1,18,(MISO)PB4*%
%TO.N,/MISO*%
X82550000Y-56515000D03*
%TO.P,IC1,19,(SCK)PB5*%
%TO.N,/SCK*%
X80010000Y-56515000D03*
%TO.P,IC1,20,AVCC*%
%TO.N,+5V*%
X77470000Y-56515000D03*
%TO.P,IC1,21,AREF*%
%TO.N,unconnected-(IC1-AREF-Pad21)*%
X74930000Y-56515000D03*
%TO.P,IC1,22,AGND*%
%TO.N,GND*%
X72390000Y-56515000D03*
%TO.P,IC1,23,(ADC0)PC0*%
%TO.N,/analog2 (30V Batt)*%
X69850000Y-56515000D03*
%TO.P,IC1,24,(ADC1)PC1*%
%TO.N,/analog1*%
X67310000Y-56515000D03*
%TO.P,IC1,25,(ADC2)PC2*%
%TO.N,/analog0 (gas)*%
X64770000Y-56515000D03*
%TO.P,IC1,26,(ADC3)PC3*%
%TO.N,/LED*%
X62230000Y-56515000D03*
%TO.P,IC1,27,(ADC4/SDA)PC4*%
%TO.N,/BUZZER*%
X59690000Y-56515000D03*
%TO.P,IC1,28,(ADC5/SCL)PC5*%
%TO.N,/LED-ext*%
X57150000Y-56515000D03*
%TD*%
D26*
%TO.P,C8,1*%
%TO.N,+5V*%
X72454888Y-72136000D03*
D16*
%TO.P,C8,2*%
%TO.N,GND*%
X74954888Y-72136000D03*
%TD*%
D26*
%TO.P,C11,1*%
%TO.N,Net-(D5-K)*%
X71120000Y-24638000D03*
D16*
%TO.P,C11,2*%
%TO.N,GND*%
X73620000Y-24638000D03*
%TD*%
D15*
%TO.P,J9,1,Pin_1*%
%TO.N,+BATT*%
X41656000Y-76200000D03*
%TD*%
D16*
%TO.P,R17,1*%
%TO.N,Net-(D7-K)*%
X100330000Y-20828000D03*
D24*
%TO.P,R17,2*%
%TO.N,GND*%
X100330000Y-10668000D03*
%TD*%
D27*
%TO.P,U3,1,Vdd*%
%TO.N,+18V*%
X128915000Y-56321800D03*
D28*
%TO.P,U3,2,INPUT*%
%TO.N,Net-(U3-INPUT)*%
X128915000Y-58861800D03*
%TO.P,U3,3,NC*%
%TO.N,unconnected-(U3-NC-Pad3)*%
X128915000Y-61401800D03*
%TO.P,U3,4,GND*%
%TO.N,GND*%
X128915000Y-63941800D03*
%TO.P,U3,5,GND*%
X136535000Y-63941800D03*
%TO.P,U3,6,OUT*%
%TO.N,Net-(J14-Pin_2)*%
X136535000Y-61401800D03*
%TO.P,U3,7,OUT*%
X136535000Y-58861800D03*
%TO.P,U3,8,Vdd*%
%TO.N,+18V*%
X136535000Y-56321800D03*
%TD*%
D16*
%TO.P,R26,1*%
%TO.N,Net-(D12-K)*%
X62992000Y-83693000D03*
D24*
%TO.P,R26,2*%
%TO.N,/Switch1*%
X62992000Y-73533000D03*
%TD*%
D45*
%TO.P,D2,1,K*%
%TO.N,Net-(D2-K)*%
X29210000Y-38608000D03*
D46*
%TO.P,D2,2,A*%
%TO.N,GND*%
X44450000Y-38608000D03*
%TD*%
D22*
%TO.P,J15,1,Pin_1*%
%TO.N,Net-(J15-Pin_1)*%
X96367600Y-5588000D03*
D23*
%TO.P,J15,2,Pin_2*%
%TO.N,+5V*%
X91287600Y-5588000D03*
%TD*%
D22*
%TO.P,J7,1,Pin_1*%
%TO.N,GND*%
X76250800Y-5588000D03*
D23*
%TO.P,J7,2,Pin_2*%
%TO.N,Net-(J7-Pin_2)*%
X71170800Y-5588000D03*
%TO.P,J7,3,Pin_3*%
%TO.N,+5V*%
X66090800Y-5588000D03*
%TD*%
D26*
%TO.P,C1,1*%
%TO.N,+24V filtered*%
X27940000Y-54610000D03*
D16*
%TO.P,C1,2*%
%TO.N,GND*%
X32940000Y-54610000D03*
%TD*%
D15*
%TO.P,J22,1,Pin_1*%
%TO.N,Net-(D5-K)*%
X62230000Y-20828000D03*
%TD*%
D16*
%TO.P,R12,1*%
%TO.N,/analog1*%
X83185000Y-34163000D03*
D24*
%TO.P,R12,2*%
%TO.N,Net-(D6-K)*%
X83185000Y-24003000D03*
%TD*%
D22*
%TO.P,J23,1,Pin_1*%
%TO.N,+24V filtered*%
X43230800Y-5588000D03*
D23*
%TO.P,J23,2,Pin_2*%
X38150800Y-5588000D03*
%TD*%
D15*
%TO.P,J8,1,Pin_1*%
%TO.N,Net-(J14-Pin_2)*%
X154940000Y-53848000D03*
%TD*%
D22*
%TO.P,J4,1,Pin_1*%
%TO.N,GND*%
X23063200Y-5588000D03*
D23*
%TO.P,J4,2,Pin_2*%
X17983200Y-5588000D03*
%TD*%
D22*
%TO.P,J3,1,Pin_1*%
%TO.N,+24V filtered*%
X33147000Y-5588000D03*
D23*
%TO.P,J3,2,Pin_2*%
X28067000Y-5588000D03*
%TD*%
D16*
%TO.P,R22,1*%
%TO.N,Net-(J17-Pin_1)*%
X53213000Y-93091000D03*
D24*
%TO.P,R22,2*%
%TO.N,GND*%
X43053000Y-93091000D03*
%TD*%
D15*
%TO.P,J5,1,Pin_1*%
%TO.N,/PWM_0*%
X95250000Y-52070000D03*
%TD*%
D16*
%TO.P,C7,1*%
%TO.N,+5V*%
X71120000Y-67564000D03*
%TO.P,C7,2*%
%TO.N,GND*%
X76120000Y-67564000D03*
%TD*%
D20*
%TO.P,D12,1,K*%
%TO.N,Net-(D12-K)*%
X43053000Y-84963000D03*
D25*
%TO.P,D12,2,A*%
%TO.N,GND*%
X53213000Y-84963000D03*
%TD*%
D15*
%TO.P,J21,1,Pin_1*%
%TO.N,Net-(D6-K)*%
X86360000Y-24638000D03*
%TD*%
D16*
%TO.P,R13,1*%
%TO.N,Net-(J7-Pin_2)*%
X71120000Y-10668000D03*
D24*
%TO.P,R13,2*%
%TO.N,Net-(D5-K)*%
X71120000Y-20828000D03*
%TD*%
D32*
%TO.P,Q1,1,C*%
%TO.N,Net-(Q1-C)*%
X125486000Y-15748000D03*
D33*
%TO.P,Q1,2,B*%
%TO.N,Net-(Q1-B)*%
X124206000Y-17018000D03*
%TO.P,Q1,3,E*%
%TO.N,GND*%
X122946000Y-15748000D03*
%TD*%
D30*
%TO.P,R1,1*%
%TO.N,Net-(F1-Pad2)*%
X37465000Y-80264000D03*
D47*
%TO.P,R1,2*%
%TO.N,Net-(R1-Pad2)*%
X12065000Y-80264000D03*
%TD*%
D30*
%TO.P,R3,1*%
%TO.N,Net-(R1-Pad2)*%
X12065000Y-69596000D03*
D47*
%TO.P,R3,2*%
%TO.N,Net-(D1-K)*%
X37465000Y-69596000D03*
%TD*%
D23*
%TO.P,F3,1*%
%TO.N,Net-(F3-Pad1)*%
X120780000Y-92456000D03*
%TO.P,F3,2*%
%TO.N,Net-(J18-Pin_2)*%
X143380000Y-92456000D03*
%TD*%
D22*
%TO.P,J17,1,Pin_1*%
%TO.N,Net-(J17-Pin_1)*%
X58801000Y-92075000D03*
D23*
%TO.P,J17,2,Pin_2*%
%TO.N,Net-(J17-Pin_2)*%
X63881000Y-92075000D03*
%TD*%
D16*
%TO.P,R25,1*%
%TO.N,Net-(J17-Pin_2)*%
X68707000Y-90805000D03*
D24*
%TO.P,R25,2*%
%TO.N,Net-(D13-K)*%
X78867000Y-90805000D03*
%TD*%
D16*
%TO.P,R21,1*%
%TO.N,/Relay (light)*%
X94996000Y-76200000D03*
D24*
%TO.P,R21,2*%
%TO.N,Net-(Q3-B)*%
X105156000Y-76200000D03*
%TD*%
D16*
%TO.P,R2,1*%
%TO.N,Net-(BZ1-+)*%
X49530000Y-50292000D03*
D24*
%TO.P,R2,2*%
%TO.N,/BUZZER*%
X59690000Y-50292000D03*
%TD*%
D22*
%TO.P,J19,1,Pin_1*%
%TO.N,+5V*%
X53289200Y-5588000D03*
D23*
%TO.P,J19,2,Pin_2*%
X48209200Y-5588000D03*
%TD*%
D48*
%TO.N,GND*%
X110744000Y-14682999D03*
X110744000Y-19304000D03*
%TO.N,+24V filtered*%
X51816000Y-17018000D03*
X62484000Y-17018000D03*
%TO.N,+5V*%
X110236000Y-55372000D03*
X103378000Y-50800000D03*
%TO.N,/Mosfet (fan)*%
X87630000Y-49276000D03*
X87630000Y-41656000D03*
D49*
%TO.N,/RESET*%
X57404000Y-69596000D03*
D48*
X99060000Y-83312000D03*
%TO.N,/MOSI*%
X99568000Y-59182000D03*
X96012000Y-59182000D03*
%TD*%
D11*
%TO.N,Net-(J7-Pin_2)*%
X71120000Y-10668000D02*
X71120000Y-5638800D01*
X71120000Y-5638800D02*
X71170800Y-5588000D01*
%TO.N,GND*%
X82550000Y-10668000D02*
X81330800Y-10668000D01*
X81330800Y-10668000D02*
X76250800Y-5588000D01*
%TO.N,/BUZZER*%
X59690000Y-50292000D02*
X59690000Y-56515000D01*
D10*
%TO.N,GND*%
X128016000Y-9398000D02*
X122174000Y-9398000D01*
D11*
X82550000Y-13629000D02*
X82804000Y-13883000D01*
D10*
X76200000Y-76708000D02*
X86868000Y-87376000D01*
X32940000Y-54610000D02*
X34322500Y-53227500D01*
D11*
X72263000Y-87376000D02*
X78867000Y-93980000D01*
D10*
X100330000Y-10668000D02*
X97115000Y-13883000D01*
D11*
X60960000Y-28702000D02*
X58420000Y-26162000D01*
D10*
X73660000Y-13883000D02*
X70525000Y-13883000D01*
D11*
X65532000Y-87376000D02*
X55626000Y-87376000D01*
X79248000Y-39116000D02*
X94996000Y-39116000D01*
X115316000Y-61468000D02*
X113792000Y-59944000D01*
D10*
X76200000Y-13883000D02*
X73660000Y-13883000D01*
X36322000Y-63246000D02*
X33020000Y-63246000D01*
X122897852Y-15709852D02*
X122902852Y-15704852D01*
X138895000Y-64101800D02*
X136535000Y-64101800D01*
X104140000Y-10668000D02*
X100330000Y-10668000D01*
X140443149Y-62769949D02*
X140335000Y-62661800D01*
X5080000Y-60452000D02*
X8636000Y-60452000D01*
D11*
X78867000Y-93980000D02*
X86868000Y-93980000D01*
X110744000Y-23368000D02*
X110744000Y-19304000D01*
D10*
X32940000Y-63166000D02*
X33020000Y-63246000D01*
X112699800Y-49657000D02*
X109524800Y-52832000D01*
X60960000Y-76708000D02*
X65532000Y-76708000D01*
D50*
X129540000Y-10668000D02*
X129540000Y-10922000D01*
D11*
X67310000Y-10668000D02*
X67310000Y-13883000D01*
D10*
X108749999Y-14682999D02*
X107950000Y-13883000D01*
D11*
X70687370Y-28702000D02*
X60960000Y-28702000D01*
D10*
X86868000Y-93980000D02*
X92964000Y-93980000D01*
D11*
X125196600Y-67660200D02*
X125196600Y-69011800D01*
D10*
X138935000Y-64061800D02*
X147266200Y-64061800D01*
D11*
X116749800Y-61361400D02*
X116643200Y-61468000D01*
D50*
X44450000Y-29290000D02*
X43608000Y-28448000D01*
D10*
X41148000Y-73152000D02*
X41148000Y-68072000D01*
X21336000Y-73152000D02*
X41148000Y-73152000D01*
D11*
X65532000Y-76708000D02*
X65532000Y-87376000D01*
D51*
X154940000Y-65405000D02*
X148609400Y-65405000D01*
D10*
X57404000Y-73152000D02*
X60960000Y-76708000D01*
X34322500Y-48768000D02*
X34322500Y-46355000D01*
X149700000Y-23716000D02*
X157734000Y-31750000D01*
X137160000Y-70104000D02*
X137160000Y-64351800D01*
X120673000Y-75692000D02*
X131572000Y-75692000D01*
D11*
X68580000Y-86908000D02*
X71668000Y-83820000D01*
X82550000Y-10668000D02*
X82550000Y-13629000D01*
X53213000Y-84963000D02*
X53213000Y-82971000D01*
D51*
X147266200Y-64061800D02*
X146329400Y-63125000D01*
D10*
X111760000Y-81534000D02*
X114808000Y-84582000D01*
X112699800Y-44018200D02*
X112801400Y-43916600D01*
D50*
X137160000Y-64351800D02*
X129325000Y-64351800D01*
D10*
X72430000Y-52705000D02*
X72430000Y-56475000D01*
D50*
X44450000Y-38608000D02*
X36703000Y-46355000D01*
D11*
X58420000Y-17272000D02*
X61809000Y-13883000D01*
D10*
X145885000Y-23716000D02*
X149700000Y-23716000D01*
D50*
X147266200Y-64061800D02*
X146976200Y-64351800D01*
D10*
X74954888Y-75413112D02*
X74954888Y-72136000D01*
D50*
X134620000Y-5588000D02*
X129540000Y-10668000D01*
D10*
X141986000Y-47919000D02*
X143256000Y-47919000D01*
D11*
X58420000Y-26162000D02*
X58420000Y-17272000D01*
X103230600Y-61361400D02*
X103124000Y-61468000D01*
D10*
X140716000Y-47919000D02*
X141986000Y-47919000D01*
D50*
X129540000Y-17018000D02*
X129540000Y-10922000D01*
D10*
X72430000Y-56475000D02*
X72390000Y-56515000D01*
D51*
X5715000Y-61087000D02*
X5080000Y-60452000D01*
D11*
X42955200Y-58390800D02*
X37211000Y-64135000D01*
D51*
X7740000Y-27940000D02*
X7740000Y-17192000D01*
D11*
X117119400Y-53035200D02*
X114096800Y-53035200D01*
D10*
X114808000Y-84582000D02*
X114808000Y-91440000D01*
X103124000Y-61468000D02*
X103124000Y-78740000D01*
X32940000Y-54610000D02*
X32940000Y-63166000D01*
D11*
X53213000Y-84963000D02*
X51181000Y-84963000D01*
X92964000Y-90932000D02*
X92964000Y-93980000D01*
D10*
X119380000Y-12192000D02*
X122897852Y-15709852D01*
X154599000Y-47919000D02*
X157640000Y-50960000D01*
D11*
X53213000Y-82971000D02*
X50760000Y-80518000D01*
D10*
X76120000Y-67564000D02*
X74930000Y-66374000D01*
D11*
X30988000Y-48768000D02*
X30988000Y-47374663D01*
X67310000Y-13883000D02*
X70525000Y-13883000D01*
X73620000Y-25769370D02*
X70687370Y-28702000D01*
D10*
X104140000Y-10668000D02*
X104735000Y-10668000D01*
D11*
X128915000Y-63941800D02*
X125196600Y-67660200D01*
D10*
X41148000Y-68072000D02*
X37211000Y-64135000D01*
X73660000Y-76708000D02*
X74954888Y-75413112D01*
X103124000Y-61468000D02*
X103124000Y-54854972D01*
D11*
X116643200Y-61468000D02*
X115316000Y-61468000D01*
X98044000Y-36068000D02*
X104140000Y-29972000D01*
D10*
X73660000Y-76708000D02*
X76200000Y-76708000D01*
X123444000Y-41188000D02*
X130175000Y-47919000D01*
X82804000Y-13883000D02*
X78740000Y-13883000D01*
D11*
X95504000Y-90932000D02*
X98044000Y-90932000D01*
D10*
X145725000Y-23876000D02*
X145885000Y-23716000D01*
X140716000Y-47659677D02*
X140716000Y-47919000D01*
X104735000Y-10668000D02*
X107950000Y-13883000D01*
X140335000Y-62661800D02*
X138895000Y-64101800D01*
D11*
X68580000Y-87376000D02*
X68580000Y-86908000D01*
D10*
X110744000Y-14682999D02*
X108749999Y-14682999D01*
D11*
X92964000Y-90932000D02*
X95504000Y-90932000D01*
D50*
X132080000Y-19558000D02*
X129540000Y-17018000D01*
D10*
X131572000Y-75692000D02*
X137160000Y-70104000D01*
D51*
X148609400Y-65405000D02*
X147266200Y-64061800D01*
X5080000Y-49825780D02*
X7661780Y-47244000D01*
D10*
X141859000Y-47792000D02*
X141986000Y-47919000D01*
D50*
X129325000Y-64351800D02*
X128915000Y-63941800D01*
D51*
X7661780Y-47244000D02*
X7661780Y-28018220D01*
D10*
X76120000Y-70970888D02*
X74954888Y-72136000D01*
D11*
X68580000Y-87376000D02*
X72263000Y-87376000D01*
X72430000Y-45934000D02*
X79248000Y-39116000D01*
D10*
X76120000Y-67564000D02*
X76120000Y-70970888D01*
D11*
X104140000Y-29972000D02*
X110744000Y-23368000D01*
D10*
X74930000Y-66374000D02*
X74930000Y-64135000D01*
X123444000Y-41148000D02*
X123444000Y-41188000D01*
X112801400Y-42991776D02*
X114899176Y-40894000D01*
D11*
X68580000Y-87376000D02*
X65532000Y-87376000D01*
D10*
X130175000Y-47919000D02*
X139192000Y-47919000D01*
D11*
X113792000Y-59944000D02*
X113792000Y-53340000D01*
X113792000Y-50749200D02*
X112699800Y-49657000D01*
D10*
X139192000Y-47919000D02*
X140716000Y-47919000D01*
D11*
X45847000Y-40005000D02*
X44450000Y-38608000D01*
D10*
X122174000Y-9398000D02*
X119380000Y-12192000D01*
D51*
X7661780Y-28018220D02*
X7740000Y-27940000D01*
D11*
X106989800Y-61361400D02*
X103230600Y-61361400D01*
D10*
X157640000Y-62705000D02*
X154940000Y-65405000D01*
D50*
X36703000Y-46355000D02*
X34572500Y-46355000D01*
D10*
X105146972Y-52832000D02*
X109524800Y-52832000D01*
X138895000Y-64101800D02*
X138935000Y-64061800D01*
X141859000Y-46516677D02*
X141859000Y-47792000D01*
X78740000Y-13883000D02*
X76200000Y-13883000D01*
X141859000Y-46516677D02*
X143256000Y-47913677D01*
D11*
X52070000Y-40005000D02*
X45847000Y-40005000D01*
D10*
X103124000Y-78740000D02*
X105918000Y-81534000D01*
X118618000Y-77747000D02*
X120673000Y-75692000D01*
X146329400Y-62769949D02*
X140443149Y-62769949D01*
X114808000Y-91440000D02*
X112268000Y-93980000D01*
D51*
X5715000Y-68453000D02*
X5715000Y-61087000D01*
D10*
X143256000Y-47919000D02*
X154599000Y-47919000D01*
X112268000Y-93980000D02*
X92964000Y-93980000D01*
X103124000Y-54854972D02*
X105146972Y-52832000D01*
X143256000Y-47913677D02*
X143256000Y-47919000D01*
D51*
X23063200Y-5588000D02*
X17983200Y-5588000D01*
D10*
X119380000Y-12192000D02*
X116889001Y-14682999D01*
D11*
X51181000Y-84963000D02*
X43053000Y-93091000D01*
X94996000Y-39116000D02*
X98044000Y-36068000D01*
D10*
X157734000Y-44784000D02*
X154599000Y-47919000D01*
D11*
X30988000Y-47374663D02*
X30672500Y-47059163D01*
X61809000Y-13883000D02*
X67310000Y-13883000D01*
D10*
X157640000Y-50960000D02*
X157640000Y-62705000D01*
X86868000Y-87376000D02*
X86868000Y-93980000D01*
D51*
X5080000Y-60452000D02*
X5080000Y-49825780D01*
D10*
X97115000Y-13883000D02*
X82804000Y-13883000D01*
X33020000Y-63246000D02*
X23876000Y-63246000D01*
D11*
X55626000Y-87376000D02*
X53213000Y-84963000D01*
D51*
X5715000Y-68453000D02*
X5715000Y-73533000D01*
D10*
X34322500Y-53227500D02*
X34322500Y-48768000D01*
X141859000Y-46516677D02*
X140716000Y-47659677D01*
D11*
X43180000Y-58390800D02*
X42955200Y-58390800D01*
D10*
X41148000Y-73152000D02*
X57404000Y-73152000D01*
D50*
X44450000Y-38608000D02*
X44450000Y-29290000D01*
D11*
X114096800Y-53035200D02*
X113792000Y-53340000D01*
D10*
X65532000Y-76708000D02*
X73660000Y-76708000D01*
X129540000Y-10922000D02*
X128016000Y-9398000D01*
D50*
X145725000Y-23876000D02*
X141407000Y-19558000D01*
D10*
X157734000Y-31750000D02*
X157734000Y-44784000D01*
D11*
X34322500Y-48768000D02*
X30988000Y-48768000D01*
D50*
X146976200Y-64351800D02*
X137160000Y-64351800D01*
D11*
X73620000Y-24638000D02*
X73620000Y-25769370D01*
D51*
X9184000Y-15748000D02*
X17983200Y-6948800D01*
D10*
X112801400Y-43916600D02*
X112801400Y-42991776D01*
D11*
X113792000Y-53340000D02*
X113792000Y-50749200D01*
D10*
X112699800Y-49657000D02*
X112699800Y-44018200D01*
X123190000Y-40894000D02*
X123444000Y-41148000D01*
D51*
X7740000Y-17192000D02*
X9184000Y-15748000D01*
D50*
X141407000Y-19558000D02*
X132080000Y-19558000D01*
D10*
X8636000Y-60452000D02*
X21336000Y-73152000D01*
X105918000Y-81534000D02*
X111760000Y-81534000D01*
X116889001Y-14682999D02*
X110744000Y-14682999D01*
D11*
X72430000Y-52705000D02*
X72430000Y-45934000D01*
D10*
X37211000Y-64135000D02*
X36322000Y-63246000D01*
X114899176Y-40894000D02*
X123190000Y-40894000D01*
D11*
X130556000Y-21082000D02*
X132080000Y-19558000D01*
X130556000Y-23876000D02*
X130556000Y-21082000D01*
D51*
X17983200Y-6948800D02*
X17983200Y-5588000D01*
D11*
X117149800Y-61361400D02*
X116749800Y-61361400D01*
D10*
%TO.N,+24V filtered*%
X135128000Y-28194000D02*
X133604000Y-26670000D01*
D50*
X21844000Y-24384000D02*
X28956000Y-17272000D01*
D11*
X62568999Y-16933001D02*
X62484000Y-17018000D01*
D10*
X107699800Y-49657000D02*
X107699800Y-46478200D01*
D50*
X21844000Y-42672000D02*
X21844000Y-24384000D01*
D10*
X110261400Y-40916600D02*
X113332000Y-37846000D01*
X115757572Y-26892000D02*
X113538000Y-24672428D01*
D11*
X45466000Y-17018000D02*
X45212000Y-17272000D01*
D10*
X133604000Y-26670000D02*
X133382000Y-26892000D01*
X133382000Y-26892000D02*
X115757572Y-26892000D01*
X127254000Y-37846000D02*
X129540000Y-37846000D01*
D50*
X28956000Y-17272000D02*
X45212000Y-17272000D01*
D11*
X49784000Y-13208000D02*
X45212000Y-13208000D01*
X51816000Y-17018000D02*
X45466000Y-17018000D01*
D51*
X45212000Y-13208000D02*
X45212000Y-17272000D01*
D10*
X110261400Y-43916600D02*
X110261400Y-40916600D01*
X129540000Y-37846000D02*
X135128000Y-32258000D01*
D51*
X43230800Y-5588000D02*
X45212000Y-7569200D01*
D50*
X27940000Y-54610000D02*
X27047500Y-53717500D01*
X27047500Y-47632171D02*
X26547500Y-47132171D01*
D11*
X113538000Y-17526000D02*
X112945001Y-16933001D01*
X112945001Y-16933001D02*
X62568999Y-16933001D01*
D10*
X113332000Y-37846000D02*
X127254000Y-37846000D01*
D50*
X27047500Y-53717500D02*
X27047500Y-47632171D01*
D51*
X45212000Y-7569200D02*
X45212000Y-13208000D01*
D10*
X113538000Y-24672428D02*
X113538000Y-17526000D01*
X135128000Y-32258000D02*
X135128000Y-28194000D01*
X107699800Y-46478200D02*
X110261400Y-43916600D01*
D50*
X26547500Y-47132171D02*
X26547500Y-46355000D01*
D51*
X28067000Y-5588000D02*
X43230800Y-5588000D01*
D50*
X26547500Y-46355000D02*
X25527000Y-46355000D01*
X25527000Y-46355000D02*
X21844000Y-42672000D01*
%TO.N,+18V*%
X115646200Y-43611800D02*
X115341400Y-43916600D01*
X146329400Y-57769949D02*
X140573949Y-57769949D01*
D10*
X115341400Y-46257200D02*
X117119400Y-48035200D01*
X138835000Y-56161800D02*
X136535000Y-56161800D01*
D52*
X121920000Y-43611800D02*
X121920000Y-48539400D01*
D50*
X140930123Y-51516677D02*
X137625400Y-54821400D01*
D10*
X146329400Y-57769949D02*
X140443149Y-57769949D01*
D50*
X128915000Y-56321800D02*
X128915000Y-51679000D01*
X137625400Y-54821400D02*
X136535000Y-55911800D01*
X141859000Y-51516677D02*
X140930123Y-51516677D01*
X128915000Y-51679000D02*
X130175000Y-50419000D01*
X128727200Y-50419000D02*
X130175000Y-50419000D01*
X129325000Y-55911800D02*
X136535000Y-55911800D01*
D10*
X140335000Y-57661800D02*
X138835000Y-56161800D01*
D50*
X140573949Y-57769949D02*
X137625400Y-54821400D01*
D52*
X121920000Y-48539400D02*
X121793000Y-48666400D01*
D50*
X121920000Y-43611800D02*
X115646200Y-43611800D01*
X121920000Y-43611800D02*
X128727200Y-50419000D01*
D10*
X115341400Y-43916600D02*
X115341400Y-46257200D01*
X140443149Y-57769949D02*
X140335000Y-57661800D01*
D50*
X128915000Y-56321800D02*
X129325000Y-55911800D01*
D53*
%TO.N,+5V*%
X105156000Y-83566000D02*
X101219000Y-79629000D01*
D10*
X97028000Y-44450000D02*
X103378000Y-50800000D01*
X71120000Y-70801112D02*
X72454888Y-72136000D01*
X50292000Y-24892000D02*
X38688000Y-24892000D01*
X71120000Y-67564000D02*
X71120000Y-70801112D01*
X50292000Y-24892000D02*
X54610000Y-24892000D01*
D53*
X104326081Y-90932000D02*
X105156000Y-90102081D01*
D51*
X48209200Y-5588000D02*
X53289200Y-5588000D01*
D10*
X54610000Y-6908800D02*
X53289200Y-5588000D01*
X72390000Y-64135000D02*
X72390000Y-59436000D01*
X54610000Y-26416000D02*
X54610000Y-24892000D01*
D50*
X81229200Y-2688800D02*
X81280000Y-2638000D01*
D51*
X29210000Y-26710000D02*
X36870000Y-26710000D01*
D50*
X81229200Y-5588000D02*
X81229200Y-2688800D01*
D10*
X77430000Y-48300000D02*
X77470000Y-48260000D01*
D50*
X66090800Y-5588000D02*
X69040800Y-2638000D01*
D11*
X32372500Y-43319500D02*
X38608000Y-37084000D01*
D10*
X56642000Y-59436000D02*
X72390000Y-59436000D01*
X54610000Y-24892000D02*
X54610000Y-6908800D01*
X54610000Y-57404000D02*
X56642000Y-59436000D01*
X79756000Y-44450000D02*
X95758000Y-44450000D01*
X110236000Y-69088000D02*
X110236000Y-55372000D01*
D50*
X117446000Y-2638000D02*
X120396000Y-5588000D01*
D10*
X130337000Y-72413000D02*
X130610000Y-72686000D01*
D50*
X81280000Y-2638000D02*
X91236800Y-2638000D01*
X91287600Y-5588000D02*
X91287600Y-2688800D01*
D53*
X101219000Y-52959000D02*
X103378000Y-50800000D01*
D10*
X113561000Y-72413000D02*
X110236000Y-69088000D01*
D53*
X105156000Y-90102081D02*
X105156000Y-83566000D01*
D10*
X77470000Y-48260000D02*
X77470000Y-46736000D01*
X95758000Y-44450000D02*
X97028000Y-44450000D01*
X72390000Y-59436000D02*
X76949000Y-59436000D01*
D11*
X32372500Y-43319500D02*
X32372500Y-46355000D01*
D10*
X52959000Y-53848000D02*
X54610000Y-53848000D01*
D53*
X101219000Y-79629000D02*
X101219000Y-52959000D01*
D10*
X124714000Y-72413000D02*
X113561000Y-72413000D01*
D51*
X53289200Y-5588000D02*
X66090800Y-5588000D01*
D10*
X77430000Y-56475000D02*
X77470000Y-56515000D01*
D53*
X103124000Y-90932000D02*
X104326081Y-90932000D01*
D50*
X91287600Y-2688800D02*
X91236800Y-2638000D01*
D10*
X77470000Y-46736000D02*
X79756000Y-44450000D01*
X71120000Y-67564000D02*
X72390000Y-66294000D01*
X77470000Y-58915000D02*
X77470000Y-56515000D01*
X77430000Y-52705000D02*
X77430000Y-56475000D01*
X54610000Y-53848000D02*
X54610000Y-57404000D01*
D11*
X38608000Y-37084000D02*
X38608000Y-28448000D01*
D10*
X77430000Y-52705000D02*
X77430000Y-48300000D01*
D11*
X72390000Y-62738000D02*
X72390000Y-64135000D01*
D51*
X36870000Y-26710000D02*
X38608000Y-28448000D01*
D10*
X72390000Y-66294000D02*
X72390000Y-64135000D01*
X124714000Y-72413000D02*
X130337000Y-72413000D01*
X54610000Y-26416000D02*
X54610000Y-53848000D01*
X38688000Y-24892000D02*
X36870000Y-26710000D01*
D50*
X69040800Y-2638000D02*
X81280000Y-2638000D01*
X91236800Y-2638000D02*
X117446000Y-2638000D01*
D10*
X76949000Y-59436000D02*
X77470000Y-58915000D01*
%TO.N,Net-(D5-K)*%
X71120000Y-20828000D02*
X71120000Y-24638000D01*
X71120000Y-20828000D02*
X67310000Y-20828000D01*
X62230000Y-20828000D02*
X67310000Y-20828000D01*
X67310000Y-20828000D02*
X67310000Y-23876000D01*
%TO.N,Net-(D6-K)*%
X83185000Y-21463000D02*
X82550000Y-20828000D01*
X86360000Y-20828000D02*
X86360000Y-24638000D01*
X83185000Y-24003000D02*
X83185000Y-21463000D01*
X86360000Y-20828000D02*
X82550000Y-20828000D01*
X80685000Y-20828000D02*
X78740000Y-18883000D01*
X82550000Y-20828000D02*
X80685000Y-20828000D01*
%TO.N,Net-(D7-K)*%
X96520000Y-20828000D02*
X100330000Y-20828000D01*
X96520000Y-24003000D02*
X96520000Y-20828000D01*
X106005000Y-20828000D02*
X107950000Y-18883000D01*
X104140000Y-20828000D02*
X106005000Y-20828000D01*
X100965000Y-24638000D02*
X100965000Y-21463000D01*
X104140000Y-20828000D02*
X100330000Y-20828000D01*
D11*
%TO.N,Net-(D12-K)*%
X43053000Y-84963000D02*
X43053000Y-89027000D01*
X43053000Y-83225000D02*
X45760000Y-80518000D01*
X47538000Y-78740000D02*
X58039000Y-78740000D01*
X43053000Y-84963000D02*
X43053000Y-83225000D01*
X58039000Y-78740000D02*
X62992000Y-83693000D01*
X45760000Y-80518000D02*
X47538000Y-78740000D01*
D50*
%TO.N,Net-(D2-K)*%
X29210000Y-38608000D02*
X29210000Y-31710000D01*
X29210000Y-43434000D02*
X28956000Y-43688000D01*
X29210000Y-38608000D02*
X29210000Y-43434000D01*
D11*
X28997500Y-43729500D02*
X28997500Y-46355000D01*
X28956000Y-43688000D02*
X28997500Y-43729500D01*
%TO.N,Net-(D4-A)*%
X52070000Y-42545000D02*
X52070000Y-46736000D01*
%TO.N,+BATT*%
X41656000Y-76200000D02*
X28460000Y-76200000D01*
D51*
X15500000Y-91440000D02*
X15500000Y-89160000D01*
D11*
X28460000Y-76200000D02*
X15500000Y-89160000D01*
D51*
X15500000Y-89160000D02*
X10668000Y-84328000D01*
X10668000Y-84328000D02*
X5715000Y-84328000D01*
X5715000Y-79248000D02*
X5715000Y-84328000D01*
D10*
%TO.N,Net-(D11-A)*%
X123444000Y-85113000D02*
X118651148Y-80320148D01*
X124714000Y-85113000D02*
X130183000Y-85113000D01*
X124714000Y-85113000D02*
X123444000Y-85113000D01*
X130183000Y-85113000D02*
X130610000Y-84686000D01*
D51*
%TO.N,Net-(F1-Pad2)*%
X38100000Y-91440000D02*
X38100000Y-80899000D01*
X38100000Y-80899000D02*
X37465000Y-80264000D01*
D53*
%TO.N,/MISO*%
X96496000Y-62968000D02*
X94488000Y-60960000D01*
X82550000Y-58415000D02*
X82550000Y-56515000D01*
X92964000Y-83820000D02*
X96496000Y-80288000D01*
X94488000Y-60960000D02*
X85095000Y-60960000D01*
X96496000Y-80288000D02*
X96496000Y-62968000D01*
X92964000Y-88392000D02*
X92964000Y-83820000D01*
X85095000Y-60960000D02*
X82550000Y-58415000D01*
D11*
%TO.N,/Switch1*%
X64770000Y-71755000D02*
X64770000Y-64135000D01*
X62992000Y-73533000D02*
X64770000Y-71755000D01*
D53*
%TO.N,/SCK*%
X95504000Y-83885126D02*
X97974000Y-81415126D01*
X97974000Y-48698000D02*
X96520000Y-47244000D01*
X82042000Y-47244000D02*
X80010000Y-49276000D01*
X80010000Y-49276000D02*
X80010000Y-56515000D01*
X97974000Y-81415126D02*
X97974000Y-48698000D01*
X96520000Y-47244000D02*
X82042000Y-47244000D01*
X95504000Y-88392000D02*
X95504000Y-83885126D01*
D11*
%TO.N,/Mosfet (fan)*%
X90424000Y-41656000D02*
X87630000Y-41656000D01*
X130556000Y-29464000D02*
X108966000Y-29464000D01*
X87630000Y-49276000D02*
X87630000Y-56515000D01*
X96774000Y-41656000D02*
X90424000Y-41656000D01*
X108966000Y-29464000D02*
X96774000Y-41656000D01*
D53*
%TO.N,/RESET*%
X98552000Y-83820000D02*
X99060000Y-83312000D01*
X98044000Y-84328000D02*
X98552000Y-83820000D01*
X57404000Y-69596000D02*
X57404000Y-64389000D01*
D11*
X53086000Y-64135000D02*
X52959000Y-64008000D01*
D53*
X98044000Y-88392000D02*
X98044000Y-84328000D01*
X57404000Y-64389000D02*
X57150000Y-64135000D01*
D11*
X57150000Y-64135000D02*
X53086000Y-64135000D01*
D53*
%TO.N,/MOSI*%
X103124000Y-84328000D02*
X100584000Y-81788000D01*
X100584000Y-81788000D02*
X99568000Y-80772000D01*
X96012000Y-59182000D02*
X86868000Y-59182000D01*
X99568000Y-62230000D02*
X99568000Y-59182000D01*
X103124000Y-88392000D02*
X103124000Y-84328000D01*
X85090000Y-57404000D02*
X85090000Y-56515000D01*
X99568000Y-80772000D02*
X99568000Y-62230000D01*
X86868000Y-59182000D02*
X85090000Y-57404000D01*
D11*
%TO.N,/LED-ext*%
X64516000Y-31496000D02*
X98044000Y-31496000D01*
X104648000Y-24892000D02*
X106426000Y-24892000D01*
X57150000Y-56515000D02*
X57150000Y-38862000D01*
X98044000Y-31496000D02*
X104648000Y-24892000D01*
X57150000Y-38862000D02*
X64516000Y-31496000D01*
%TO.N,/analog2 (30V Batt)*%
X69850000Y-44958000D02*
X78232000Y-36576000D01*
X94107000Y-36576000D02*
X96520000Y-34163000D01*
X78232000Y-36576000D02*
X94107000Y-36576000D01*
X69850000Y-56515000D02*
X69850000Y-44958000D01*
%TO.N,/LED*%
X62230000Y-46736000D02*
X62230000Y-56515000D01*
%TO.N,/analog1*%
X77089000Y-34163000D02*
X83185000Y-34163000D01*
X67310000Y-43942000D02*
X77089000Y-34163000D01*
X67310000Y-56515000D02*
X67310000Y-43942000D01*
%TO.N,/analog0 (gas)*%
X66802000Y-34036000D02*
X67310000Y-34036000D01*
X64770000Y-56515000D02*
X64770000Y-36068000D01*
X64770000Y-36068000D02*
X66802000Y-34036000D01*
%TO.N,/Switch2*%
X67310000Y-72644000D02*
X67310000Y-64135000D01*
X68199000Y-73533000D02*
X67310000Y-72644000D01*
%TO.N,/Relay (light)*%
X94996000Y-76200000D02*
X85344000Y-76200000D01*
X80010000Y-70866000D02*
X80010000Y-64135000D01*
X85344000Y-76200000D02*
X80010000Y-70866000D01*
%TO.N,/PWM_0*%
X95250000Y-55397400D02*
X95250000Y-52070000D01*
X91287600Y-55397400D02*
X90170000Y-56515000D01*
X95250000Y-55397400D02*
X91287600Y-55397400D01*
D10*
%TO.N,Net-(J6-Pin_2)*%
X115316000Y-11938000D02*
X115316000Y-5588000D01*
D11*
%TO.N,Net-(J13-Pin_1)*%
X86360000Y-10668000D02*
X86360000Y-5588000D01*
%TO.N,Net-(J15-Pin_1)*%
X96520000Y-10668000D02*
X96520000Y-5588000D01*
%TO.N,Net-(J17-Pin_1)*%
X58801000Y-92075000D02*
X54229000Y-92075000D01*
X54229000Y-92075000D02*
X53213000Y-93091000D01*
X53213000Y-89027000D02*
X53213000Y-93091000D01*
D51*
%TO.N,Net-(J18-Pin_2)*%
X143380000Y-92456000D02*
X143002000Y-92456000D01*
X138430000Y-82042000D02*
X141836000Y-78636000D01*
X138430000Y-87884000D02*
X138430000Y-82042000D01*
X143002000Y-92456000D02*
X138430000Y-87884000D01*
X141836000Y-78636000D02*
X154940000Y-78636000D01*
D54*
%TO.N,Net-(J18-Pin_3)*%
X154940000Y-83716000D02*
X153970000Y-84686000D01*
X142810000Y-84686000D02*
X153970000Y-84686000D01*
%TO.N,Net-(J18-Pin_1)*%
X142860000Y-72636000D02*
X154020000Y-72636000D01*
X154940000Y-73556000D02*
X154020000Y-72636000D01*
D52*
%TO.N,Net-(U3-INPUT)*%
X125196600Y-58851800D02*
X121818400Y-58851800D01*
X117154800Y-58826400D02*
X117149800Y-58821400D01*
X128915000Y-58861800D02*
X125206600Y-58861800D01*
X125206600Y-58861800D02*
X125196600Y-58851800D01*
X121818400Y-58851800D02*
X121793000Y-58826400D01*
X121793000Y-58826400D02*
X117154800Y-58826400D01*
D11*
%TO.N,Net-(OC1-Pad1)*%
X106989800Y-58821400D02*
X106989800Y-56977200D01*
X106989800Y-56977200D02*
X105410000Y-55397400D01*
D10*
%TO.N,Net-(Q1-C)*%
X125476000Y-11938000D02*
X125476000Y-15671704D01*
X125476000Y-15671704D02*
X125519148Y-15714852D01*
D11*
%TO.N,Net-(Q1-B)*%
X117856000Y-24892000D02*
X124206000Y-18542000D01*
X124206000Y-18542000D02*
X124206000Y-17348000D01*
X116586000Y-24892000D02*
X117856000Y-24892000D01*
D10*
%TO.N,Net-(Q2-G)*%
X140716000Y-29464000D02*
X145227000Y-29464000D01*
X140716000Y-23876000D02*
X140716000Y-29464000D01*
X145227000Y-29464000D02*
X145725000Y-28966000D01*
D11*
%TO.N,Net-(Q3-B)*%
X105156000Y-76200000D02*
X114211000Y-76200000D01*
X114211000Y-76200000D02*
X117018000Y-79007000D01*
D51*
%TO.N,Net-(R1-Pad2)*%
X12065000Y-80264000D02*
X12065000Y-69596000D01*
D11*
%TO.N,Net-(D13-K)*%
X74168000Y-81280000D02*
X70612000Y-81280000D01*
X74168000Y-81320000D02*
X74168000Y-81280000D01*
X78740000Y-87376000D02*
X78740000Y-85892000D01*
X78740000Y-85892000D02*
X76668000Y-83820000D01*
X78867000Y-87503000D02*
X78740000Y-87376000D01*
X70612000Y-81280000D02*
X68199000Y-83693000D01*
X76668000Y-83820000D02*
X74168000Y-81320000D01*
X78867000Y-90805000D02*
X78867000Y-87503000D01*
%TO.N,Net-(J17-Pin_2)*%
X68707000Y-90805000D02*
X65151000Y-90805000D01*
X68707000Y-93980000D02*
X68707000Y-90805000D01*
X65151000Y-90805000D02*
X63881000Y-92075000D01*
D10*
%TO.N,Net-(J14-Pin_2)*%
X147320000Y-60325000D02*
X137611800Y-60325000D01*
D50*
X154940000Y-60325000D02*
X147320000Y-60325000D01*
D51*
X136535000Y-58861800D02*
X136535000Y-61401800D01*
D10*
X137611800Y-60325000D02*
X136535000Y-61401800D01*
D52*
X154940000Y-60325000D02*
X154940000Y-53848000D01*
D51*
%TO.N,Net-(D1-K)*%
X24892000Y-69596000D02*
X37465000Y-69596000D01*
X20320000Y-60452000D02*
X20320000Y-52402220D01*
X20320000Y-52402220D02*
X15161780Y-47244000D01*
X23876000Y-50546000D02*
X22176220Y-50546000D01*
X22176220Y-50546000D02*
X20320000Y-52402220D01*
X20320000Y-65024000D02*
X24892000Y-69596000D01*
X15240000Y-21336000D02*
X15240000Y-27940000D01*
X17486000Y-19050000D02*
X17526000Y-19050000D01*
X17526000Y-19050000D02*
X15240000Y-21336000D01*
X22612000Y-17272000D02*
X19304000Y-17272000D01*
X15161780Y-28018220D02*
X15240000Y-27940000D01*
X19304000Y-17272000D02*
X17526000Y-19050000D01*
X15161780Y-47244000D02*
X15161780Y-28018220D01*
X20320000Y-60452000D02*
X20320000Y-65024000D01*
X14184000Y-15748000D02*
X17486000Y-19050000D01*
%TO.N,Net-(F3-Pad1)*%
X130302000Y-92456000D02*
X134620000Y-88138000D01*
X131468000Y-78636000D02*
X128660000Y-78636000D01*
X120780000Y-92456000D02*
X130302000Y-92456000D01*
X134620000Y-81788000D02*
X131468000Y-78636000D01*
X134620000Y-88138000D02*
X134620000Y-81788000D01*
%TO.N,Net-(D9-K)*%
X139700000Y-5588000D02*
X139700000Y-8890000D01*
X139700000Y-8890000D02*
X133858000Y-14732000D01*
%TO.N,Net-(D9-A)*%
X146818000Y-14992000D02*
X146558000Y-14732000D01*
X146558000Y-14732000D02*
X146558000Y-7366000D01*
X154432000Y-14992000D02*
X146818000Y-14992000D01*
X146558000Y-7366000D02*
X144780000Y-5588000D01*
%TO.N,Net-(Q2-D)*%
X154432000Y-33020000D02*
X147828000Y-26416000D01*
D50*
X145725000Y-26416000D02*
X147828000Y-26416000D01*
D51*
X154432000Y-37592000D02*
X154432000Y-33020000D01*
D11*
%TO.N,Net-(BZ1-+)*%
X49530000Y-50292000D02*
X46278800Y-50292000D01*
X46278800Y-50292000D02*
X43180000Y-53390800D01*
%TD*%
M02*
